<svg width="0" height="0" class="hidden">
    <symbol xmlns="http://www.w3.org/2000/svg" viewBox="0 0 28 27" id="icon-nuts">
        <path fill-rule="evenodd" clip-rule="evenodd" d="M4.4771 2.13899C6.70312 0.785857 9.81229 0 14 0C18.1877 0 21.2969 0.785857 23.5229 2.13899C25.7708 3.50543 27.0507 5.41075 27.6252 7.49152C28.7509 11.5684 27.1563 16.2155 25.2891 18.9348C23.7751 21.1399 21.6196 22.9157 19.5827 24.2337C17.5422 25.5541 15.5605 26.4536 14.3292 26.8847L14 27L13.6708 26.8847C12.4395 26.4536 10.4578 25.5541 8.4173 24.2337C6.38037 22.9157 4.22493 21.1399 2.71087 18.9348C0.843716 16.2155 -0.750866 11.5684 0.374783 7.49152C0.949301 5.41075 2.22919 3.50543 4.4771 2.13899ZM2.28498 8.01193C1.36428 11.3465 2.67977 15.3977 4.34723 17.8262C5.66086 19.7393 7.58483 21.3469 9.49843 22.5851C11.2264 23.7032 12.8969 24.4888 14 24.9086C15.1031 24.4888 16.7736 23.7032 18.5016 22.5851C20.4152 21.3469 22.3391 19.7393 23.6528 17.8262C25.3202 15.3977 26.6357 11.3465 25.715 8.01193C25.479 7.15705 25.0952 6.34265 24.5231 5.60388C24.193 5.70072 23.7652 5.82259 23.2525 5.95544C22.0077 6.27797 20.2636 6.66495 18.1762 6.923C14.1895 7.41586 8.91445 7.44278 3.46352 5.62119C2.89881 6.35537 2.51918 7.16372 2.28498 8.01193ZM5.11289 4.07453C9.83587 5.45095 14.3876 5.40866 17.9316 4.97054C19.9135 4.72553 21.5704 4.35792 22.7525 4.05162C22.7771 4.04526 22.8014 4.03893 22.8255 4.03263C22.7167 3.95926 22.6045 3.88743 22.489 3.81721C20.6721 2.71279 17.9578 1.96753 14 1.96753C10.0422 1.96753 7.32786 2.71279 5.511 3.81721C5.37357 3.90075 5.24091 3.98656 5.11289 4.07453ZM25.2043 5.40398C25.228 5.39815 25.2233 5.40049 25.1999 5.40507C25.2016 5.40465 25.203 5.40429 25.2043 5.40398Z" />
    </symbol>
    <symbol xmlns="http://www.w3.org/2000/svg" viewBox="0 0 25 25" id="icon-dried-fruits">
        <path d="M24.9376 20.2855C24.5669 22.1465 22.7134 23.139 22.4662 23.139C20.242 24.3797 17.7705 25 15.2991 25C11.3449 25 7.5142 23.5112 4.54851 20.5336L5.90779 19.1689C6.15493 19.417 6.40207 19.6651 6.52564 19.7892C8.62634 21.6502 11.2213 22.6427 13.9399 23.0149C14.5577 23.0149 15.1756 23.139 15.7934 23.0149C17.7705 22.8909 19.7477 22.3946 21.6012 21.4021C21.9719 21.1539 22.9605 20.5336 23.0841 19.7892C23.2076 19.2929 22.8369 18.7967 22.2191 18.0523L17.1527 12.9656C17.1527 12.9656 17.2763 12.9656 17.2763 12.8415C17.8941 12.4693 18.512 12.4693 18.8827 12.5934C19.377 12.7174 19.6241 12.9656 19.7477 12.9656L23.5784 16.8116C24.6905 18.0523 25.1848 19.1689 24.9376 20.2855Z" />
        <path d="M12.2098 7.75473C12.2098 7.75473 12.0863 7.8788 12.0863 8.00287L11.4684 7.38254L6.89632 2.79208C6.27847 2.17175 5.66062 1.92362 5.16634 1.92362C4.42492 2.04768 3.80706 3.04021 3.55992 3.41241C2.57136 5.27341 2.07708 7.1344 1.95351 9.11946C1.95351 9.7398 1.95351 10.3601 1.95351 10.9805C2.20065 13.7099 3.31278 16.4394 5.16634 18.5485C5.41348 18.7966 5.53705 19.0448 5.78419 19.1688L4.42492 20.5336C-0.27076 15.819 -1.38289 8.37507 1.82994 2.54395C1.95351 2.41988 2.8185 0.434819 4.67206 0.0626199C5.78419 -0.185513 6.89632 0.310752 8.00846 1.42735L11.8391 5.27341C11.8391 5.39747 12.0863 5.64561 12.2098 6.14187C12.457 6.63814 12.457 7.1344 12.2098 7.75473Z"/>
        <path d="M12.5807 12.4692C12.8278 12.7173 13.075 12.8414 13.3221 13.0895L6.03145 20.4095L4.79574 19.1688L12.21 11.7248C12.21 12.097 12.4571 12.3451 12.5807 12.4692Z" />
        <path d="M16.0407 13.5858V14.5783V15.5709L15.7935 23.263V24.2555H13.94V23.263L14.1871 15.5709V14.5783V13.5858C14.8049 13.7099 15.4228 13.7099 16.0407 13.5858Z" />
        <path d="M11.592 10.8564H9.61487L1.95351 10.9805L0.964941 10.9805V9.11948L1.95351 9.11946L9.61487 8.99542H11.4684C11.4684 9.61575 11.4684 10.2361 11.592 10.8564Z"/>
        <path d="M18.8827 12.7174C18.7591 12.8415 18.6356 12.9655 18.512 13.2137C18.2649 13.4618 18.0177 13.5859 17.7706 13.834C17.2763 14.2062 16.6585 14.4543 16.0407 14.5783C15.4228 14.7024 14.8049 14.7024 14.1871 14.5783C13.6928 14.4543 13.1985 14.2062 12.7042 13.9581C12.457 13.834 12.2099 13.5859 11.9628 13.3377C11.7156 13.0896 11.5921 12.8415 11.3449 12.5933C10.9742 12.0971 10.8506 11.6008 10.7271 10.9805C10.6035 10.3601 10.6035 9.73982 10.7271 9.11948C10.8506 8.49915 11.0977 7.8788 11.4684 7.38254C11.592 7.1344 11.8392 6.88629 12.0863 6.63816C12.2099 6.51409 12.3335 6.39002 12.5806 6.26596C12.7042 6.63816 12.5806 7.25849 12.3335 7.87882C12.3335 7.87882 12.2099 8.00289 12.2099 8.12695C11.9628 8.49915 11.8392 8.74728 11.8392 9.11948C11.7156 9.73982 11.7156 10.3601 11.8392 10.9805C11.9628 11.3527 12.0863 11.6008 12.2099 11.8489C12.3335 12.0971 12.5806 12.3452 12.8278 12.5933C13.0749 12.8415 13.322 12.9655 13.5692 13.2137C13.8163 13.3377 14.187 13.4618 14.4342 13.5859C15.052 13.7099 15.6699 13.7099 16.2877 13.5859C16.6584 13.4618 17.0292 13.3377 17.3999 13.2137C17.3999 13.2137 17.5234 13.2137 17.5234 13.0896C17.8941 12.7174 18.512 12.7174 18.8827 12.7174Z" />
        <path d="M19.7477 13.0896C19.6241 13.3377 19.377 13.5859 19.1298 13.834C18.8827 14.0821 18.6356 14.2062 18.3884 14.4543C17.647 14.9506 16.782 15.3228 15.917 15.4469C15.2992 15.5709 14.6813 15.5709 14.0635 15.4469C13.322 15.3228 12.5806 14.9506 11.9628 14.4543C11.7156 14.3303 11.4685 14.0821 11.2213 13.834C10.9742 13.5859 10.8506 13.3377 10.6035 13.0896C10.1092 12.4693 9.86201 11.7249 9.61487 10.8564C9.4913 10.2361 9.4913 9.61575 9.61487 8.99542C9.73844 8.12695 10.1092 7.38255 10.6035 6.63816C10.7271 6.39002 10.9742 6.14189 11.2213 5.89376C11.4685 5.64563 11.7156 5.52156 11.9628 5.27343C11.9628 5.39749 12.2099 5.64563 12.3335 6.14189C12.457 6.51409 12.3335 7.13442 12.0863 7.75475C12.0863 7.75475 11.9628 7.87882 11.9628 8.00289C11.7156 8.37509 11.5921 8.62322 11.5921 8.99542C11.4685 9.61575 11.4684 10.2361 11.592 10.8564C11.7156 11.2286 11.8392 11.4767 11.9628 11.7249C12.0863 11.973 12.3335 12.2211 12.5807 12.4692C12.8278 12.7173 13.075 12.8414 13.3221 13.0895C13.5692 13.2136 13.9399 13.3377 14.187 13.4618C14.8049 13.5859 15.4227 13.5859 16.0406 13.4618C16.4113 13.3377 16.782 13.2137 17.1527 13.0896C17.1527 13.0896 17.2763 13.0896 17.2763 12.9655C17.8941 12.5933 18.512 12.5933 18.8827 12.7174C19.377 12.8415 19.6241 13.0896 19.7477 13.0896Z" />
    </symbol>
    <symbol xmlns="http://www.w3.org/2000/svg" viewBox="0 0 35 30"  id="icon-tea">
        <path d="M14.1667 30C6.30952 30 0 25.6967 0 20.2869C0 14.8771 6.30952 10.5738 14.1667 10.5738C22.0238 10.5738 28.3333 14.8771 28.3333 20.2869C28.3333 25.6967 22.0238 30 14.1667 30ZM14.1667 12.5411C7.38095 12.5411 1.78571 16.1066 1.78571 20.4099C1.78571 24.7131 7.38095 28.2787 14.1667 28.2787C20.9524 28.2787 26.5476 24.7131 26.5476 20.4099C26.5476 15.9837 21.0714 12.5411 14.1667 12.5411Z" />
        <path d="M22.619 11.6803C22.0237 11.5573 21.6666 11.1885 21.7856 10.6967C21.7856 10.3278 21.9047 9.95898 21.9047 9.71308C21.9047 5.28686 18.4523 1.84425 14.2856 1.84425C9.99993 1.84425 6.6666 5.40982 6.6666 9.71308C6.6666 10.0819 6.6666 10.4508 6.78565 10.6967C6.9047 11.1885 6.54756 11.6803 6.07137 11.6803C5.59517 11.6803 5.11898 11.4344 5.11898 10.9426C5.11898 10.5737 4.99994 10.0819 4.99994 9.71308C4.99994 4.30326 9.28565 0 14.4047 0C19.6428 0 23.8094 4.42621 23.8094 9.71308C23.8094 10.0819 23.8094 10.5737 23.6904 10.9426C23.4523 11.3114 23.0952 11.6803 22.619 11.6803Z" />
        <path d="M14.6428 16.5984C9.16666 16.5984 5 15 4.7619 14.8771L5.35714 13.1558C5.47619 13.1558 14.5238 16.7213 22.9762 13.1558L23.6905 14.8771C20.5952 16.1066 17.3809 16.5984 14.6428 16.5984Z" />
        <path d="M25.9524 25.6967L24.881 24.2213L32.9762 18.0738L32.6191 16.8443L27.2619 18.8115L26.6667 17.0902L33.8095 14.3853L35 18.8115L25.9524 25.6967Z" />
        <path d="M14.1667 9.22137C15.0871 9.22137 15.8333 8.45071 15.8333 7.50006C15.8333 6.54941 15.0871 5.77876 14.1667 5.77876C13.2462 5.77876 12.5 6.54941 12.5 7.50006C12.5 8.45071 13.2462 9.22137 14.1667 9.22137Z" />
    </symbol>
    <symbol xmlns="http://www.w3.org/2000/svg" viewBox="0 0 32 30"  id="icon-baskets">
        <path d="M28.4444 17.1245V12.4893C28.4444 5.66524 22.9841 0 16.127 0C9.39683 0 3.80952 5.53648 3.80952 12.4893V17.1245H0V19.0558H1.52381V24.721C1.52381 27.6824 3.93651 30 6.73016 30H25.2698C28.1905 30 30.4762 27.5536 30.4762 24.721V19.0558H32V17.1245H28.4444ZM5.71429 12.3605C5.71429 6.56652 10.4127 1.80258 16.127 1.80258C21.8413 1.80258 26.5397 6.56652 26.5397 12.3605V16.9957H5.71429V12.3605ZM28.8254 24.721C28.8254 26.6524 27.3016 28.1974 25.3968 28.1974H6.85714C4.95238 28.1974 3.42857 26.6524 3.42857 24.721V22.7897H28.6984V24.721H28.8254ZM28.8254 20.8584H3.55556V18.927H28.8254V20.8584Z" />
        <path d="M16.1269 14.5494C17.1087 14.5494 17.9047 13.7423 17.9047 12.7468C17.9047 11.7512 17.1087 10.9442 16.1269 10.9442C15.1451 10.9442 14.3491 11.7512 14.3491 12.7468C14.3491 13.7423 15.1451 14.5494 16.1269 14.5494Z" />
    </symbol>
    <symbol xmlns="http://www.w3.org/2000/svg" viewBox="0 0 29 29"  id="icon-sweets">
        <path d="M10.322 5.8983C11.0593 6.63559 11.0593 7.74152 10.322 8.47881C9.58474 9.2161 8.47881 9.2161 7.74152 8.47881C7.00424 7.74152 7.00424 6.63559 7.74152 5.8983C8.47881 5.16102 9.70763 5.16102 10.322 5.8983Z" />
        <path d="M21.75 9.83051C22.4873 10.5678 22.4873 11.6737 21.75 12.411C21.0127 13.1483 19.9068 13.1483 19.1695 12.411C18.4322 11.6737 18.4322 10.5678 19.1695 9.83051C19.9068 9.09322 21.0127 9.09322 21.75 9.83051Z" />
        <path d="M12.411 20.8898C13.1483 21.6271 13.1483 22.7331 12.411 23.4703C11.6737 24.2076 10.5678 24.2076 9.8305 23.4703C9.09322 22.7331 9.09322 21.6271 9.8305 20.8898C10.5678 20.2754 11.6737 20.2754 12.411 20.8898Z" />
        <path d="M9.09322 15.1144C9.46186 15.483 9.46186 16.0975 9.09322 16.3432C8.72458 16.7119 8.11017 16.7119 7.86441 16.3432C7.49576 15.9746 7.49576 15.3602 7.86441 15.1144C8.11017 14.7458 8.72458 14.7458 9.09322 15.1144Z" />
        <path d="M14.6229 13.2712C14.9915 13.6398 14.9915 14.2542 14.6229 14.5C14.2542 14.8686 13.6398 14.8686 13.3941 14.5C13.0254 14.1314 13.0254 13.5169 13.3941 13.2712C13.6398 12.9025 14.2542 12.9025 14.6229 13.2712Z" />
        <path d="M18.3093 5.77542C18.678 6.14407 18.678 6.75847 18.3093 7.00424C17.9407 7.25 17.3263 7.37288 17.0805 7.00424C16.8347 6.63559 16.7119 6.02119 17.0805 5.77542C17.4492 5.40678 17.9407 5.40678 18.3093 5.77542Z" />
        <path d="M14.5 0C6.51271 0 0 6.51271 0 14.5C0 22.4873 6.51271 29 14.5 29C14.7458 29 14.9915 29 15.483 29C15.9746 29 16.3432 28.6314 16.3432 28.1398C16.3432 26.7881 17.0805 25.5593 18.3093 24.9449C18.5551 24.822 18.678 24.5763 18.8008 24.3305C18.9237 24.0847 18.8008 23.839 18.678 23.5932C18.3093 22.9788 18.1864 22.3644 18.1864 21.75C18.1864 19.7839 19.7839 18.1864 21.75 18.1864C22.3644 18.1864 22.9788 18.3093 23.5932 18.678C23.839 18.8008 24.0847 18.8008 24.3305 18.8008C24.5763 18.678 24.822 18.5551 24.9449 18.3093C25.5593 17.0805 26.7881 16.3432 28.1398 16.3432C28.6314 16.3432 29 15.8517 29 15.3602C29 15.1144 29 14.8686 29 14.5C29 6.38983 22.4873 0 14.5 0ZM27.1568 14.5C25.8051 14.7458 24.5763 15.4831 23.7161 16.589C23.1017 16.3432 22.3644 16.2203 21.75 16.2203C18.8008 16.2203 16.3432 18.678 16.3432 21.6271C16.3432 22.3644 16.4661 22.9788 16.7119 23.5932C15.6059 24.4534 14.8686 25.6822 14.6229 27.0339C14.6229 27.0339 14.6229 27.0339 14.5 27.0339C7.49576 27.0339 1.84322 21.3814 1.84322 14.3771C1.84322 7.37288 7.49576 1.72034 14.5 1.72034C21.5042 1.72034 27.1568 7.37288 27.1568 14.5Z" />
    </symbol>
    <symbol xmlns="http://www.w3.org/2000/svg" viewBox="0 0 24 31"  id="icon-fruits">
        <path d="M20.6598 14.1128C19.9175 13.1479 19.299 12.3035 18.9278 11.3385C18.6804 10.7354 18.5567 10.2529 18.3093 9.64981C17.567 7.35798 16.701 4.46303 12.9897 4.10117V0H11.0103V0.96498C10.7629 0.723735 10.5155 0.603112 10.1443 0.48249C8.41237 -0.241246 6.43299 0 4.57732 1.20623C4.20619 1.44747 4.08247 1.80934 4.08247 2.29183C4.3299 3.49805 5.07217 4.46304 6.18557 5.06615C6.68041 5.30739 7.17526 5.42802 7.79382 5.54864C6.68041 6.63424 6.06186 8.32296 5.69072 9.64981C5.56701 10.2529 5.31959 10.856 5.07217 11.3385C4.70103 12.3035 4.08248 13.1479 3.34021 14.1128C1.85567 16.0428 0.123711 18.4553 0 22.3152C0 27.1401 3.83505 31 8.65979 31C9.40206 31 9.89691 30.8794 10.3918 30.7588C10.8866 30.6381 11.2577 30.5175 12 30.5175C12.7423 30.5175 13.1134 30.6381 13.6082 30.7588C14.1031 30.8794 14.5979 31 15.3402 31C20.1649 31 24 27.1401 24 22.3152C23.8763 18.4553 22.0206 16.0428 20.6598 14.1128ZM6.30928 2.41245C7.42268 1.92996 8.53608 1.80934 9.40206 2.17121C10.0206 2.41245 10.3918 2.89494 10.6392 3.25681C9.27835 3.61868 8.04124 3.61868 7.17526 3.13619C6.80413 3.01556 6.5567 2.77432 6.30928 2.41245ZM15.3402 29.07C14.8454 29.07 14.5979 28.9494 14.1031 28.8288C13.6082 28.7082 12.9897 28.5875 12 28.5875C11.0103 28.5875 10.3918 28.7082 9.89691 28.8288C9.52577 28.9494 9.15464 29.07 8.65979 29.07C4.94845 29.07 1.97938 26.0545 1.97938 22.3152C1.97938 19.0584 3.46392 17.1284 4.94845 15.1984C5.69072 14.1128 6.43299 13.1479 6.92784 11.9416C7.17526 11.3385 7.29897 10.7354 7.54639 10.1323C8.41237 7.35798 9.03093 5.78988 12 5.78988C14.9691 5.78988 15.5876 7.35798 16.4536 10.1323C16.701 10.7354 16.8247 11.3385 17.0722 11.9416C17.567 13.1479 18.3093 14.1128 19.0515 15.1984C20.4124 17.1284 21.8969 19.0584 22.0206 22.3152C21.8969 26.0545 19.0515 29.07 15.3402 29.07Z" />
    </symbol>
    <symbol xmlns="http://www.w3.org/2000/svg" viewBox="0 0 29 30"  id="icon-hrc">
        <path d="M11.5756 17.7731H10.2353V15.6303H8.04202V17.7731H6.70168V12.3529H8.04202V14.3697H10.2353V12.3529H11.5756V17.7731Z" />
        <path d="M17.0588 17.7731H15.4748L14.6218 15.8824H13.8908V17.7731H12.5504V12.3529H15.2311C15.8403 12.3529 16.2059 12.479 16.5714 12.8571C16.937 13.2353 17.0588 13.6134 17.0588 14.1176C17.0588 14.4958 16.937 14.8739 16.6933 15.126C16.4496 15.3782 16.2059 15.6303 15.9622 15.6303L17.0588 17.7731ZM14.9874 14.7479C15.2311 14.7479 15.3529 14.7479 15.4748 14.6218C15.5966 14.4958 15.7185 14.3697 15.7185 14.2437C15.7185 14.1176 15.5966 13.8655 15.4748 13.8655C15.3529 13.8655 15.2311 13.7395 14.9874 13.7395H13.8908V14.874H14.9874V14.7479Z" />
        <path d="M20.3487 17.8992C19.4958 17.8992 18.8866 17.6471 18.2773 17.1429C17.7899 16.6387 17.4244 15.8824 17.4244 15.126C17.4244 14.2437 17.6681 13.6134 18.2773 13.1092C18.7647 12.605 19.4958 12.3529 20.3487 12.3529C21.4454 12.3529 22.1765 12.8571 22.6639 13.8655L21.4454 14.4958C21.3235 14.2437 21.2017 14.1176 20.958 13.9916C20.7143 13.8655 20.4706 13.7395 20.2269 13.7395C19.8613 13.7395 19.4958 13.8655 19.1303 14.2437C18.7647 14.6218 18.7647 14.8739 18.7647 15.3782C18.7647 15.8824 18.8866 16.2605 19.1303 16.5126C19.3739 16.7647 19.7395 17.0168 20.2269 17.0168C20.4706 17.0168 20.7143 16.8908 20.958 16.7647C21.2017 16.6387 21.3235 16.3866 21.4454 16.2605L22.6639 16.8908C22.4202 17.2689 22.1765 17.6471 21.8109 17.8992C21.4454 17.6471 20.958 17.8992 20.3487 17.8992Z" />
        <path d="M14.5 30C6.57983 30 0 23.3193 0 15C0 6.80672 6.45798 0 14.5 0C22.4202 0 29 6.68067 29 15C29 23.3193 22.542 30 14.5 30ZM14.5 1.89076C7.55462 1.89076 1.82773 7.81513 1.82773 15C1.82773 22.1849 7.55462 28.1092 14.5 28.1092C21.4454 28.1092 27.1723 22.1849 27.1723 15C27.1723 7.81513 21.4454 1.89076 14.5 1.89076Z" />
    </symbol>
    <symbol xmlns="http://www.w3.org/2000/svg" viewBox="0 0 29 30"  id="icon-candied">
        <path d="M14.5 30C6.51271 30 0 23.2627 0 15C0 6.73729 6.51271 0 14.5 0C22.4873 0 29 6.73729 29 15C29 23.2627 22.4873 30 14.5 30ZM14.5 1.90678C7.49576 1.90678 1.84322 7.75424 1.84322 15C1.84322 22.2458 7.49576 28.0932 14.5 28.0932C21.5042 28.0932 27.1568 22.2458 27.1568 15C27.1568 7.75424 21.5042 1.90678 14.5 1.90678Z" />
        <path d="M12.411 10.0423C13.3611 10.0423 14.1313 9.24556 14.1313 8.26268C14.1313 7.2798 13.3611 6.48302 12.411 6.48302C11.4608 6.48302 10.6906 7.2798 10.6906 8.26268C10.6906 9.24556 11.4608 10.0423 12.411 10.0423Z" />
        <path d="M16.589 10.0423C17.5391 10.0423 18.3093 9.24556 18.3093 8.26268C18.3093 7.2798 17.5391 6.48302 16.589 6.48302C15.6388 6.48302 14.8686 7.2798 14.8686 8.26268C14.8686 9.24556 15.6388 10.0423 16.589 10.0423Z" />
        <path d="M21.0126 14.6186C21.9628 14.6186 22.733 13.8218 22.733 12.8389C22.733 11.856 21.9628 11.0593 21.0126 11.0593C20.0625 11.0593 19.2923 11.856 19.2923 12.8389C19.2923 13.8218 20.0625 14.6186 21.0126 14.6186Z" />
        <path d="M21.0126 19.0677C21.9628 19.0677 22.733 18.271 22.733 17.2881C22.733 16.3052 21.9628 15.5084 21.0126 15.5084C20.0625 15.5084 19.2923 16.3052 19.2923 17.2881C19.2923 18.271 20.0625 19.0677 21.0126 19.0677Z" />
        <path d="M7.98726 14.6186C8.93737 14.6186 9.7076 13.8218 9.7076 12.8389C9.7076 11.856 8.93737 11.0593 7.98726 11.0593C7.03714 11.0593 6.26692 11.856 6.26692 12.8389C6.26692 13.8218 7.03714 14.6186 7.98726 14.6186Z" />
        <path d="M7.98726 19.0677C8.93737 19.0677 9.7076 18.271 9.7076 17.2881C9.7076 16.3052 8.93737 15.5084 7.98726 15.5084C7.03714 15.5084 6.26692 16.3052 6.26692 17.2881C6.26692 18.271 7.03714 19.0677 7.98726 19.0677Z" />
        <path d="M12.411 23.6441C13.3611 23.6441 14.1313 22.8474 14.1313 21.8645C14.1313 20.8816 13.3611 20.0848 12.411 20.0848C11.4608 20.0848 10.6906 20.8816 10.6906 21.8645C10.6906 22.8474 11.4608 23.6441 12.411 23.6441Z" />
        <path d="M16.589 23.6441C17.5391 23.6441 18.3093 22.8474 18.3093 21.8645C18.3093 20.8816 17.5391 20.0848 16.589 20.0848C15.6388 20.0848 14.8686 20.8816 14.8686 21.8645C14.8686 22.8474 15.6388 23.6441 16.589 23.6441Z" />
    </symbol>
</svg>
