<svg width="0" height="0" class="hidden">
    <symbol viewBox="0 0 32 32" xmlns="http://www.w3.org/2000/svg" id="icon-vegetables">
        <g clip-path="url(#clip0)">
            <path d="M32 3.703C32 1.661 30.283 0 28.173 0c-.9 0-1.755.304-2.431.844A3.897 3.897 0 0 0 23.308 0c-2.11 0-3.826 1.661-3.826 3.703 0 .193.016.385.047.574-2.78-.35-5.692.507-7.823 2.569-5.02 4.859-10.436 21.31-10.664 22.009a.859.859 0 0 0 .224.886c.008.007.372.383.916.216.721-.22 17.721-5.461 22.742-10.32 2.148-2.078 3.02-4.89 2.658-7.569.195.03.392.045.591.045 2.11 0 3.827-1.661 3.827-3.703 0-.871-.314-1.7-.872-2.353A3.622 3.622 0 0 0 32 3.703zm-8.36 14.69c-1.925 1.864-6.323 4.16-12.718 6.64a155.322 155.322 0 0 1-7.585 2.704c.35-1.003.852-2.398 1.461-3.992l.36.348a.93.93 0 0 0 1.283 0 .859.859 0 0 0 0-1.243l-.938-.909a104.337 104.337 0 0 1 1.89-4.471l1.655 1.602a.93.93 0 0 0 1.285 0 .859.859 0 0 0 0-1.243l-2.144-2.075c.764-1.594 1.502-2.987 2.207-4.165l2.543 2.462a.93.93 0 0 0 1.285 0 .86.86 0 0 0 0-1.243l-2.845-2.753c.565-.816 1.105-1.475 1.613-1.966a7.49 7.49 0 0 1 1.629-1.197l2.21 2.138a.93.93 0 0 0 1.284 0 .86.86 0 0 0 0-1.243l-1.658-1.605c2.489-.61 5.24.026 7.183 1.907a7.12 7.12 0 0 1 0 10.304zM29.283 6.79c.564.362.9.968.9 1.621 0 1.073-.901 1.945-2.01 1.945-.4 0-.792-.116-1.122-.332a8.927 8.927 0 0 0-2.127-3.176 9.29 9.29 0 0 0-3.282-2.058 1.901 1.901 0 0 1-.343-1.086c0-1.073.902-1.945 2.01-1.945.675 0 1.301.325 1.676.871a.926.926 0 0 0 1.513 0 2.028 2.028 0 0 1 1.675-.871c1.109 0 2.01.873 2.01 1.945 0 .653-.336 1.26-.9 1.622a.864.864 0 0 0 0 1.464z"></path>
        </g>
        <defs>
            <clipPath id="clip0">
                <path fill="#fff" d="M0 0h32v32H0z"></path>
            </clipPath>
        </defs>
    </symbol>
    <symbol viewBox="0 0 32 32" xmlns="http://www.w3.org/2000/svg" id="icon-flowers">
        <path d="M15.5 31c-.316 0-.527-.105-.632-.421L5.49 14.353c-.105-.21-.105-.526 0-.842.105-.211.421-.422.632-.422h18.649c.316 0 .526.106.632.422a.9.9 0 0 1 0 .737l-9.272 16.226c-.105.316-.421.526-.632.526zM7.493 14.775L15.5 28.577l7.902-13.802H7.492zm7.901-4.32a4.721 4.721 0 0 1-4.74-4.741c0-1.264.42-2.423 1.369-3.266a.81.81 0 0 1 1.053-.106l.106.106.737.737.948-.948a.827.827 0 0 1 1.16 0l.842.843.843-.843a.827.827 0 0 1 1.16 0c.947.843 1.369 2.107 1.369 3.372-.106 2.739-2.213 4.846-4.847 4.846zm-2.74-6.321c-.21.42-.42.948-.42 1.475 0 1.685 1.37 3.16 3.16 3.16 1.791 0 3.161-1.37 3.161-3.16 0-.527-.105-1.16-.421-1.58l-.738.842a.827.827 0 0 1-1.159 0l-.843-.843-.948.948a.827.827 0 0 1-1.159 0c-.21-.421-.421-.632-.632-.842z"></path>
        <path d="M7.703 11.825c-.421 0-.843-.105-1.264-.21-1.265-.317-2.213-1.16-2.845-2.213-.632-1.054-.737-2.318-.421-3.477.105-.421.421-.632.842-.632h.106c.105 0 .632.21 1.053.316l.316-1.264c0-.106.211-.317.317-.422.21-.105.421-.105.632-.105l1.159.316.316-1.054c.105-.421.527-.632.948-.527 1.264.317 2.213 1.16 2.845 2.213.632 1.054.737 2.423.421 3.582-.316 1.265-1.159 2.213-2.212 2.845-.633.421-1.475.632-2.213.632zm-3.16-4.741c0 .527.105 1.053.42 1.475.422.737 1.054 1.264 1.897 1.475.843.21 1.686.105 2.423-.316.738-.422 1.265-1.054 1.475-1.897.211-.842.106-1.685-.316-2.423-.316-.527-.737-.948-1.159-1.159L8.967 5.4c-.105.21-.21.42-.421.526-.21.105-.422.105-.632.105l-1.16-.316L6.44 6.98c-.106.421-.527.632-.949.526-.42-.21-.737-.316-.948-.421zm18.647 4.741c-.842 0-1.58-.21-2.317-.632-1.054-.632-1.897-1.58-2.213-2.845-.316-1.264-.21-2.528.422-3.582.632-1.054 1.685-1.896 2.844-2.213.422-.105.843.106.949.527l.316 1.054 1.159-.316c.21-.106.421 0 .632.105.21.105.316.316.421.527l.316 1.264c.422-.105.948-.316 1.054-.316h.316c.316 0 .632.21.737.632.316 1.16.106 2.424-.421 3.477-.632 1.054-1.58 1.897-2.845 2.213-.527 0-.948.105-1.37.105zm-1.58-7.48a3.061 3.061 0 0 0-1.159 1.159c-.421.737-.527 1.58-.316 2.423.21.843.738 1.475 1.475 1.896.738.422 1.58.527 2.423.316.843-.21 1.476-.737 1.897-1.475.316-.421.421-.948.421-1.475l-.948.316c-.421.106-.843-.105-.948-.526l-.316-1.265-1.16.316c-.42.106-.842-.105-.947-.526l-.422-1.16z"></path>
    </symbol>
    <symbol viewBox="0 0 32 32" xmlns="http://www.w3.org/2000/svg" id="icon-fruit-box">
        <path d="M15.86 16.578c-.492 0-.984-.37-.984-.985 0-2.217-1.848-3.942-3.942-3.942-2.094 0-3.942 1.848-3.942 3.942 0 .492-.369.985-.985.985s-.985-.37-.985-.985a5.782 5.782 0 0 1 5.789-5.79 5.782 5.782 0 0 1 5.789 5.79c.246.616-.246.985-.74.985z"></path>
        <path d="M25.715 16.578c-.493 0-.986-.37-.986-.985 0-2.217-1.847-3.942-3.941-3.942s-3.942 1.848-3.942 3.942c0 .492-.37.985-.985.985-.616 0-.986-.37-.986-.985a5.782 5.782 0 0 1 5.79-5.79 5.782 5.782 0 0 1 5.789 5.79c.123.616-.247.985-.74.985z"></path>
        <path d="M20.788 11.774c-.493 0-.986-.369-.986-.985 0-2.217-1.847-3.941-3.941-3.941s-3.942 1.847-3.942 3.941c0 .493-.369.986-.985.986s-.985-.37-.985-.986A5.782 5.782 0 0 1 15.738 5a5.782 5.782 0 0 1 5.789 5.79c.246.492-.246.985-.74.985zm4.188 14.781H6.993a.926.926 0 0 1-.863-.616l-3.079-9.854c-.123-.246 0-.615.123-.862.123-.246.493-.37.74-.37h23.895c.246 0 .616.124.739.37.123.247.246.493.123.862l-2.956 9.854c0 .37-.37.616-.74.616zM7.608 24.708h16.629l2.34-8.007H5.145l2.463 8.007z"></path>
    </symbol>
    <symbol viewBox="0 0 32 32" xmlns="http://www.w3.org/2000/svg" id="icon-sur">
        <path d="M27.045 11.48c-.122.96-.733 1.8-1.588 2.28v8.28c0 2.76-2.321 5.16-5.253 5.16H10.43c-2.81 0-5.254-2.28-5.254-5.16v-8.4a2.916 2.916 0 0 1-1.466-2.52V11c-.244.6-.366 1.32-.366 2.04v9c0 3.84 3.176 6.96 7.086 6.96h9.896c3.91 0 7.086-3.12 7.086-6.96v-8.76c-.122-.6-.122-1.2-.367-1.8zm-2.932-3.24c.367 0 .733.12 1.1.24-.489-.48-.978-.84-1.466-1.08-.123-.12-.245-.12-.367-.24a6.721 6.721 0 0 0-3.054-.72H10.43c-1.1 0-2.077.24-2.932.6-.122.12-.367.12-.489.24-.61.36-1.1.72-1.588 1.2.366-.24.977-.36 1.466-.36h17.226v.12z"></path>
        <path d="M26.923 8.48c-.733-.72-1.71-1.08-2.81-1.08H6.765c-2.2 0-3.91 1.68-3.91 3.84 0 .72.122 1.32.489 1.92.122.24.366.6.61.84.367.36.734.6 1.222.84.49.24.978.36 1.589.36h17.348c.489 0 .977-.12 1.344-.24.733-.24 1.344-.72 1.833-1.44.366-.6.733-1.32.733-2.16 0-1.32-.49-2.28-1.1-2.88zM6.765 14c-.611 0-1.1-.12-1.589-.48A2.916 2.916 0 0 1 3.71 11v-.12c0-1.08.611-1.92 1.589-2.4.366-.24.977-.36 1.466-.36h7.696V14H6.765zm18.692-.24c-.367.24-.855.36-1.344.36h-7.819V8.24h7.82c.366 0 .732.12 1.099.24 1.1.48 1.832 1.44 1.832 2.76v.36c-.122.84-.733 1.68-1.588 2.16z"></path>
        <path d="M25.09 6.56c-.366-.12-.61-.12-.977-.12H6.765c-.367 0-.733 0-1.1.12C3.588 7.04 2 8.96 2 11.12c0 1.32.489 2.52 1.466 3.36.489.48 1.1.84 1.833 1.08.488.24.977.24 1.588.24h17.348c.489 0 .978-.12 1.344-.24.733-.24 1.344-.6 1.833-.96.977-.84 1.588-2.16 1.588-3.48-.122-2.28-1.71-4.08-3.91-4.56zm1.955 4.92c-.122.96-.733 1.8-1.588 2.28-.367.24-.855.36-1.344.36H6.765c-.611 0-1.1-.12-1.589-.48a2.916 2.916 0 0 1-1.466-2.52V11c0-1.08.611-1.92 1.589-2.4.366-.24.977-.36 1.466-.36h17.348c.367 0 .733.12 1.1.24 1.1.48 1.832 1.44 1.832 2.76v.24z"></path>
        <path d="M16.294 7.28h-1.833v20.64h1.833V7.28zm8.919 0H23.38c0-1.92-1.588-3.48-3.543-3.48s-3.543 1.56-3.543 3.48h-1.833c0-2.88 2.444-5.28 5.376-5.28 2.932 0 5.376 2.4 5.376 5.28z"></path>
        <path d="M16.294 7.28h-1.833c0-1.92-1.588-3.48-3.542-3.48-1.955 0-3.543 1.56-3.543 3.48H5.543C5.543 4.4 7.986 2 10.919 2c2.932 0 5.375 2.4 5.375 5.28z"></path>
    </symbol>
    <symbol viewBox="0 0 32 32" xmlns="http://www.w3.org/2000/svg" id="icon-diferent">
        <path d="M11.366 17.295C7.326 17.295 4 13.841 4 9.648 4 5.454 7.327 2 11.366 2c4.04 0 7.367 3.454 7.367 7.648 0 4.193-3.327 7.647-7.367 7.647zm0-13.321c-2.97 0-5.346 2.467-5.346 5.55 0 3.084 2.376 5.55 5.346 5.55s5.347-2.466 5.347-5.55c0-3.083-2.376-5.55-5.347-5.55zM12.317 30c-2.733 0-4.871-2.344-4.871-5.057 0-2.714 2.257-5.058 4.87-5.058 2.615 0 4.872 2.344 4.872 5.058 0 2.713-2.138 5.057-4.871 5.057zm0-8.141c-1.664 0-2.97 1.357-2.97 3.084s1.306 3.083 2.97 3.083c1.663 0 2.97-1.356 2.97-3.083s-1.307-3.084-2.97-3.084zm11.763-.987c-2.14 0-3.922-1.85-3.922-4.07s1.783-4.07 3.921-4.07c2.139 0 3.921 1.85 3.921 4.07s-1.663 4.07-3.92 4.07zm0-6.167c-1.07 0-2.02.863-2.02 2.097 0 1.233.831 2.097 2.02 2.097 1.069 0 2.019-.864 2.019-2.097 0-1.234-.95-2.097-2.02-2.097z"></path>
        <path d="M11.366 11.374c.919 0 1.664-.773 1.664-1.726 0-.954-.745-1.727-1.664-1.727-.918 0-1.663.773-1.663 1.727 0 .953.745 1.726 1.663 1.726z"></path>
    </symbol>
    <symbol viewBox="0 0 32 32" xmlns="http://www.w3.org/2000/svg" id="icon-hrc">
        <path d="M12.576 18.773h-1.34V16.63H9.041v2.143h-1.34v-5.42h1.34v2.017h2.193v-2.017h1.34v5.42zm5.483 0h-1.584l-.853-1.89h-.731v1.89h-1.34v-5.42h2.68c.61 0 .975.126 1.34.504.366.378.488.756.488 1.26 0 .379-.122.757-.366 1.009-.243.252-.487.504-.73.504l1.096 2.143zm-2.072-3.025c.244 0 .366 0 .488-.126s.243-.252.243-.378-.121-.378-.243-.378-.244-.127-.488-.127h-1.096v1.135h1.096v-.126zm5.362 3.152c-.853 0-1.462-.253-2.072-.757-.487-.504-.853-1.26-.853-2.017 0-.882.244-1.513.853-2.017.488-.504 1.219-.756 2.072-.756 1.096 0 1.828.504 2.315 1.513l-1.219.63a.968.968 0 0 0-.487-.504c-.244-.127-.487-.253-.731-.253-.366 0-.731.127-1.097.505-.365.378-.365.63-.365 1.134 0 .504.122.883.365 1.135.244.252.61.504 1.097.504.244 0 .487-.126.731-.252s.366-.378.487-.505l1.219.63c-.244.379-.488.757-.853 1.01-.366-.253-.853 0-1.462 0z"></path>
        <path d="M15.5 31C7.58 31 1 24.32 1 16 1 7.807 7.458 1 15.5 1 23.42 1 30 7.68 30 16s-6.458 15-14.5 15zm0-28.11C8.555 2.89 2.828 8.816 2.828 16S8.555 29.11 15.5 29.11 28.172 23.184 28.172 16 22.445 2.89 15.5 2.89z"></path>
    </symbol>
    <symbol viewBox="0 0 32 32" xmlns="http://www.w3.org/2000/svg" id="icon-fruit">
        <g clip-path="url(#clip0)">
            <path d="M24.66 15.113c-.742-.965-1.361-1.81-1.732-2.774-.248-.604-.371-1.086-.619-1.69-.742-2.291-1.608-5.186-5.32-5.548V1H15.01v.965c-.247-.241-.495-.362-.866-.483C12.412.76 10.433 1 8.577 2.206c-.37.241-.495.603-.495 1.086.248 1.206.99 2.171 2.104 2.774.494.241.99.362 1.608.483-1.114 1.085-1.732 2.774-2.103 4.1-.124.604-.371 1.207-.619 1.69-.371.964-.99 1.809-1.732 2.774-1.484 1.93-3.216 4.342-3.34 8.202C4 28.14 7.835 32 12.66 32c.742 0 1.237-.12 1.732-.241.495-.12.866-.242 1.608-.242.742 0 1.113.121 1.608.242.495.12.99.241 1.732.241 4.825 0 8.66-3.86 8.66-8.685-.124-3.86-1.98-6.272-3.34-8.202zm-14.35-11.7c1.113-.483 2.226-.604 3.092-.242.619.241.99.724 1.237 1.086-1.36.362-2.598.362-3.464-.12-.37-.121-.618-.363-.866-.725zm9.03 26.657c-.495 0-.742-.12-1.237-.241A8.288 8.288 0 0 0 16 29.587c-.99 0-1.608.121-2.103.242-.371.12-.742.241-1.237.241-3.712 0-6.68-3.015-6.68-6.755 0-3.257 1.484-5.187 2.968-7.117.743-1.085 1.485-2.05 1.98-3.256.247-.604.371-1.207.618-1.81C12.412 8.358 13.031 6.79 16 6.79c2.97 0 3.588 1.568 4.454 4.342.247.603.37 1.207.618 1.81.495 1.206 1.237 2.17 1.98 3.256 1.36 1.93 2.845 3.86 2.969 7.117-.124 3.74-2.97 6.755-6.68 6.755z"></path>
        </g>
        <defs>
            <clipPath id="clip0">
                <path fill="#fff" d="M0 0h32v32H0z"></path>
            </clipPath>
        </defs>
    </symbol>
    <symbol viewBox="0 0 32 32" xmlns="http://www.w3.org/2000/svg" id="icon-nuts">
        <path fill-rule="evenodd" clip-rule="evenodd" d="M6.477 4.139C8.703 2.786 11.812 2 16 2s7.297.786 9.523 2.139c2.248 1.366 3.528 3.272 4.102 5.353 1.126 4.076-.469 8.723-2.336 11.443-1.514 2.205-3.67 3.98-5.706 5.299-2.04 1.32-4.022 2.22-5.254 2.65L16 29l-.33-.115c-1.23-.431-3.212-1.33-5.253-2.651-2.037-1.318-4.192-3.094-5.706-5.3-1.867-2.719-3.462-7.366-2.336-11.442.574-2.081 1.854-3.987 4.102-5.353zm-2.192 5.873c-.92 3.335.395 7.386 2.062 9.814 1.314 1.913 3.238 3.52 5.151 4.76 1.728 1.117 3.399 1.903 4.502 2.323 1.103-.42 2.774-1.206 4.502-2.324 1.913-1.238 3.837-2.846 5.15-4.759 1.668-2.428 2.984-6.48 2.063-9.814a6.888 6.888 0 0 0-1.192-2.408 39.739 39.739 0 0 1-6.347 1.32c-3.987.492-9.262.519-14.712-1.303a6.892 6.892 0 0 0-1.179 2.39zm2.828-3.937c4.723 1.376 9.275 1.334 12.819.896a37.743 37.743 0 0 0 4.894-.938 8.494 8.494 0 0 0-.337-.216c-1.817-1.104-4.531-1.85-8.489-1.85-3.958 0-6.672.746-8.489 1.85-.137.084-.27.17-.398.258zm20.091 1.329z"></path>
    </symbol>
    <symbol viewBox="0 0 32 32" xmlns="http://www.w3.org/2000/svg" id="icon-dry-fruits">
        <path d="M27.938 23.285c-.371 1.861-2.225 2.854-2.472 2.854A14.707 14.707 0 0 1 18.3 28c-3.954 0-7.785-1.489-10.75-4.466l1.359-1.365.618.62c2.1 1.861 4.695 2.854 7.414 3.226.618 0 1.236.124 1.853 0 1.977-.124 3.955-.62 5.808-1.613.37-.248 1.36-.868 1.483-1.613.124-.496-.247-.992-.865-1.737l-5.066-5.086s.123 0 .123-.124c.618-.373 1.236-.373 1.607-.249.494.124.741.373.865.373l3.83 3.846c1.113 1.24 1.607 2.357 1.36 3.473zM15.21 10.755s-.124.124-.124.248l-.618-.62-4.572-4.59c-.618-.621-1.235-.87-1.73-.87-.741.125-1.359 1.117-1.606 1.49a13.686 13.686 0 0 0-1.606 5.707v1.86c.247 2.73 1.359 5.46 3.212 7.569.247.248.371.496.618.62l-1.36 1.365C2.73 18.819 1.618 11.375 4.83 5.544c.124-.124.989-2.11 2.842-2.481 1.112-.249 2.224.248 3.337 1.364l3.83 3.846c0 .124.247.373.37.869.248.496.248.992 0 1.613z"></path>
        <path d="M15.58 15.47c.248.247.495.371.742.62l-7.29 7.32-1.236-1.241 7.414-7.444c0 .372.247.62.37.744zm3.46 1.116v1.984l-.246 7.692v.992H16.94v-.992l.247-7.692v-1.984a4.66 4.66 0 0 0 1.854 0zm-4.448-2.73h-1.977l-7.661.124h-.99v-1.86h.99l7.66-.125h1.854c0 .62 0 1.241.124 1.861z"></path>
        <path d="M21.883 15.717a1.712 1.712 0 0 0-.371.497c-.247.248-.494.372-.741.62-.495.372-1.113.62-1.73.744a4.66 4.66 0 0 1-1.854 0c-.494-.124-.989-.372-1.483-.62-.247-.124-.494-.372-.741-.62s-.37-.497-.618-.745c-.37-.496-.494-.992-.618-1.613a4.716 4.716 0 0 1 0-1.86c.124-.62.37-1.241.741-1.737.124-.249.371-.497.618-.745.124-.124.248-.248.495-.372.123.372 0 .992-.247 1.613 0 0-.124.124-.124.248-.247.372-.37.62-.37.992a4.716 4.716 0 0 0 0 1.861c.123.373.246.62.37.869.123.248.37.496.618.744.247.248.494.373.741.62.247.125.618.249.865.373a4.664 4.664 0 0 0 1.854 0l1.112-.372s.123 0 .123-.124c.371-.373.989-.373 1.36-.373z"></path>
        <path d="M22.748 16.09c-.124.248-.371.496-.618.744s-.494.372-.742.62c-.741.497-1.606.869-2.471.993a4.664 4.664 0 0 1-1.854 0c-.741-.124-1.482-.496-2.1-.993-.247-.124-.494-.372-.742-.62-.247-.248-.37-.496-.617-.744-.495-.62-.742-1.365-.99-2.234a4.716 4.716 0 0 1 0-1.86c.124-.869.495-1.613.99-2.358.123-.248.37-.496.617-.744.248-.248.495-.372.742-.62 0 .123.247.372.37.868.124.372 0 .992-.247 1.613 0 0-.123.124-.123.248-.247.372-.37.62-.37.992a4.716 4.716 0 0 0-.001 1.861c.124.373.247.62.37.869.124.248.372.496.619.744s.494.372.741.62c.247.125.618.249.865.373a4.66 4.66 0 0 0 1.854 0l1.112-.372s.123 0 .123-.124c.618-.373 1.236-.373 1.607-.249.494.124.741.373.865.373z"></path>
    </symbol>
    <symbol viewBox="0 0 32 32" fxmlns="http://www.w3.org/2000/svg" id="icon-candied">
        <path d="M15.5 31C7.513 31 1 24.263 1 16S7.513 1 15.5 1 30 7.737 30 16s-6.513 15-14.5 15zm0-28.093C8.496 2.907 2.843 8.754 2.843 16c0 7.246 5.653 13.093 12.657 13.093 7.004 0 12.657-5.847 12.657-13.093 0-7.246-5.653-13.093-12.657-13.093z"></path>
        <path d="M13.411 11.042c.95 0 1.72-.796 1.72-1.78 0-.982-.77-1.779-1.72-1.779s-1.72.797-1.72 1.78.77 1.78 1.72 1.78zm4.178 0c.95 0 1.72-.796 1.72-1.78 0-.982-.77-1.779-1.72-1.779s-1.72.797-1.72 1.78.77 1.78 1.72 1.78zm4.424 4.577c.95 0 1.72-.797 1.72-1.78s-.77-1.78-1.72-1.78-1.72.797-1.72 1.78.77 1.78 1.72 1.78zm0 4.449c.95 0 1.72-.797 1.72-1.78s-.77-1.78-1.72-1.78-1.72.797-1.72 1.78.77 1.78 1.72 1.78zM8.987 15.619c.95 0 1.72-.797 1.72-1.78s-.77-1.78-1.72-1.78-1.72.797-1.72 1.78.77 1.78 1.72 1.78zm0 4.449c.95 0 1.72-.797 1.72-1.78s-.77-1.78-1.72-1.78-1.72.797-1.72 1.78.77 1.78 1.72 1.78zm4.424 4.576c.95 0 1.72-.797 1.72-1.78 0-.982-.77-1.78-1.72-1.78s-1.72.798-1.72 1.78c0 .983.77 1.78 1.72 1.78zm4.178 0c.95 0 1.72-.797 1.72-1.78 0-.982-.77-1.78-1.72-1.78s-1.72.798-1.72 1.78c0 .983.77 1.78 1.72 1.78z"></path>
    </symbol>
    <symbol viewBox="0 0 32 32" xmlns="http://www.w3.org/2000/svg" id="icon-basket">
        <g clip-path="url(#clip0)">
            <path d="M28.444 17.125v-4.636C28.444 5.665 22.984 0 16.127 0 9.397 0 3.81 5.536 3.81 12.49v4.635H0v1.93h1.524v5.666C1.524 27.682 3.937 30 6.73 30h18.54c2.92 0 5.206-2.446 5.206-5.279v-5.665H32v-1.931h-3.556zM5.714 12.36c0-5.794 4.699-10.558 10.413-10.558S26.54 6.567 26.54 12.36v4.635H5.714V12.36zm23.111 12.36c0 1.931-1.523 3.476-3.428 3.476H6.857c-1.905 0-3.428-1.545-3.428-3.476v-1.93h25.27v1.931h.126zm0-3.863H3.555v-1.931h25.27v1.931z"></path>
            <path d="M16.127 14.55c.982 0 1.778-.808 1.778-1.803 0-.996-.796-1.803-1.778-1.803s-1.778.807-1.778 1.803a1.79 1.79 0 0 0 1.778 1.802z"></path>
        </g>
        <defs>
            <clipPath id="clip0">
                <path fill="#fff" d="M0 0h32v32H0z"></path>
            </clipPath>
        </defs>
    </symbol>
    <symbol viewBox="0 0 32 32" xmlns="http://www.w3.org/2000/svg" id="icon-cookes">
        <path d="M11.322 6.898c.737.738.737 1.844 0 2.58-.737.738-1.843.738-2.58 0-.738-.736-.738-1.842 0-2.58.737-.737 1.966-.737 2.58 0zM22.75 10.83c.737.738.737 1.844 0 2.581-.737.737-1.843.737-2.58 0-.738-.737-.738-1.843 0-2.58.737-.738 1.843-.738 2.58 0zm-9.339 11.06c.737.737.737 1.843 0 2.58-.737.738-1.843.738-2.58 0-.738-.737-.738-1.843 0-2.58a2.037 2.037 0 0 1 2.58 0zm-3.318-5.776c.369.369.369.983 0 1.23-.368.368-.983.368-1.229 0-.368-.37-.368-.984 0-1.23.246-.368.86-.368 1.23 0zm5.53-1.843c.369.369.369.983 0 1.229-.369.369-.983.369-1.229 0-.369-.369-.369-.983 0-1.229.246-.369.86-.369 1.229 0zm3.687-7.496c.368.37.368.983 0 1.23-.37.245-.984.368-1.23 0-.245-.37-.368-.984 0-1.23.37-.368.86-.368 1.23 0z"></path>
        <path d="M15.5 1C7.513 1 1 7.513 1 15.5S7.513 30 15.5 30h.983a.84.84 0 0 0 .86-.86c0-1.352.738-2.58 1.966-3.195.246-.123.369-.369.492-.614.123-.246 0-.492-.123-.738-.369-.614-.492-1.229-.492-1.843a3.566 3.566 0 0 1 3.564-3.564c.614 0 1.229.123 1.843.492.246.123.492.123.738.123.245-.123.491-.246.614-.492a3.542 3.542 0 0 1 3.195-1.966c.491 0 .86-.491.86-.983v-.86C30 7.39 23.487 1 15.5 1zm12.657 14.5a5.64 5.64 0 0 0-3.44 2.089 5.565 5.565 0 0 0-1.967-.369c-2.95 0-5.407 2.458-5.407 5.407 0 .737.123 1.352.369 1.966a5.638 5.638 0 0 0-2.09 3.44H15.5A12.639 12.639 0 0 1 2.843 15.378 12.639 12.639 0 0 1 15.5 2.72c7.004 0 12.657 5.653 12.657 12.78z"></path>
    </symbol>
    <symbol viewBox="0 0 32 32" xmlns="http://www.w3.org/2000/svg" id="icon-tea">
        <g clip-path="url(#clip0)">
            <path d="M12.952 29C5.77 29 0 25.127 0 20.258c0-4.869 5.769-8.741 12.952-8.741 7.184 0 12.953 3.872 12.953 8.741 0 4.87-5.769 8.742-12.953 8.742zm0-15.713c-6.204 0-11.32 3.209-11.32 7.082 0 3.873 5.116 7.082 11.32 7.082 6.204 0 11.32-3.21 11.32-7.082 0-3.984-5.007-7.082-11.32-7.082z"></path>
            <path d="M20.68 12.512c-.544-.11-.87-.442-.762-.885 0-.332.11-.664.11-.885 0-3.984-3.157-7.082-6.967-7.082-3.918 0-6.966 3.209-6.966 7.082 0 .332 0 .664.109.885.109.443-.218.885-.653.885-.435 0-.87-.221-.87-.664 0-.332-.11-.774-.11-1.106C4.571 5.872 8.49 2 13.17 2c4.79 0 8.599 3.984 8.599 8.742 0 .332 0 .774-.11 1.106-.217.332-.543.664-.979.664zm-7.292 4.427c-5.007 0-8.817-1.439-9.034-1.55l.544-1.549c.109 0 8.38 3.21 16.109 0l.653 1.55c-2.83 1.106-5.769 1.549-8.272 1.549zm10.34 8.188l-.98-1.328 7.402-5.533-.327-1.106-4.898 1.77-.544-1.549 6.53-2.434L32 18.93l-8.272 6.197z"></path>
            <path d="M12.952 10.3c.842 0 1.524-.694 1.524-1.55 0-.856-.682-1.55-1.524-1.55-.841 0-1.523.694-1.523 1.55 0 .856.682 1.55 1.523 1.55z"></path>
        </g>
        <defs>
            <clipPath id="clip0">
                <path fill="#fff" d="M0 0h32v32H0z"></path>
            </clipPath>
        </defs>
    </symbol>
    <symbol viewBox="0 0 32 32" xmlns="http://www.w3.org/2000/svg" id="icon-spices">
        <path d="M29.085 7.334c.59-.59.915-1.375.915-2.21 0-.834-.325-1.619-.915-2.209A3.104 3.104 0 0 0 26.875 2c-.834 0-1.62.325-2.21.915l-1.361 1.363A14.4 14.4 0 0 0 15.5 2 14.405 14.405 0 0 0 5.247 6.247 14.405 14.405 0 0 0 1 16.5c0 3.873 1.508 7.514 4.247 10.253A14.405 14.405 0 0 0 15.5 31c3.873 0 7.514-1.508 10.253-4.247A14.406 14.406 0 0 0 30 16.5c0-2.791-.785-5.474-2.278-7.804l1.363-1.362zm-3.218-3.217c.27-.27.627-.418 1.008-.418s.739.148 1.008.418c.27.269.418.627.418 1.008 0 .38-.148.738-.418 1.008l-6.988 6.988-2.016-2.016 6.988-6.988zM24.206 16.5c0 4.8-3.906 8.706-8.706 8.706-4.8 0-8.706-3.906-8.706-8.706 0-4.8 3.906-8.706 8.706-8.706 1.226 0 2.43.258 3.537.75l-1.359 1.36-.31-.31a.85.85 0 0 0-1.2 1.201l5.037 5.038a.846.846 0 0 0 1.201 0 .85.85 0 0 0 0-1.201l-.309-.31 1.359-1.359a8.706 8.706 0 0 1 .75 3.537zm4.095 0c0 7.058-5.743 12.8-12.801 12.8S2.7 23.559 2.7 16.5c0-7.058 5.742-12.8 12.8-12.8 2.338 0 4.59.623 6.57 1.811l-1.76 1.76a10.397 10.397 0 0 0-4.81-1.176c-5.737 0-10.405 4.668-10.405 10.405 0 5.737 4.668 10.405 10.405 10.405 5.737 0 10.405-4.668 10.405-10.405 0-1.682-.406-3.33-1.177-4.81l1.76-1.76a12.713 12.713 0 0 1 1.813 6.57z"></path>
        <path d="M12.315 11.555a.855.855 0 0 0-.601.249.857.857 0 0 0-.249.6c0 .225.091.444.249.602a.856.856 0 0 0 .6.248c.224 0 .443-.09.601-.248a.856.856 0 0 0 .25-.601.857.857 0 0 0-.25-.601.855.855 0 0 0-.6-.249zm3.185 4.55a.854.854 0 0 0-.85.85c0 .224.091.443.25.6a.857.857 0 0 0 .6.25.85.85 0 0 0 .6-.25.857.857 0 0 0 .25-.6.855.855 0 0 0-.25-.6.855.855 0 0 0-.6-.25zm-5.688 0a.852.852 0 0 0-.85.85.855.855 0 0 0 .85.85.849.849 0 0 0 .6-.25.856.856 0 0 0 .25-.6.855.855 0 0 0-.85-.85zm2.048 3.64a.853.853 0 0 0-.6 1.45.855.855 0 0 0 .6.25.852.852 0 0 0 .6-.249.857.857 0 0 0 .25-.6.857.857 0 0 0-.25-.602.855.855 0 0 0-.6-.248zm8.418-2.047a.856.856 0 0 0-.601.249.855.855 0 0 0-.249.6c0 .224.09.443.249.601a.855.855 0 0 0 .6.25.855.855 0 0 0 .602-.25.857.857 0 0 0 .248-.6.856.856 0 0 0-.248-.601.856.856 0 0 0-.601-.25zm-2.731 2.958a.856.856 0 0 0-.6.248.855.855 0 0 0-.25.6.853.853 0 0 0 .85.851.857.857 0 0 0 .601-.25.855.855 0 0 0 .249-.6.855.855 0 0 0-.249-.6.855.855 0 0 0-.6-.25z"></path>
    </symbol>
    <symbol viewBox="0 0 32 32" xmlns="http://www.w3.org/2000/svg" id="icon-spices2">
        <g clip-path="url(#clip0)">
            <path d="M25.557 19.611l-5.343 2.672c-.904.452-1.696.996-2.319 1.619l-2.992 2.992c.585 1.702-.03 2.848-.715 3.532-1.165 1.166-2.925 1.55-4.955 1.082-1.866-.431-3.773-1.548-5.372-3.147-1.599-1.599-2.716-3.506-3.147-5.372-.468-2.03-.084-3.79 1.082-4.955.688-.689 1.828-1.331 3.485-.777l2.994-2.994c.663-.663 1.259-1.444 1.664-2.255l2.671-5.343A10.72 10.72 0 0 1 20.09.953l2.26-.49c.32-.063.65.037.88.267l8.262 8.262c.23.23.33.56.266.88l-.489 2.26a10.721 10.721 0 0 1-5.712 7.48zM5.238 26.985c2.612 2.612 6.08 3.558 7.573 2.065.365-.364.628-.853.088-1.954a.973.973 0 0 1 .185-1.117l1.082-1.082-6.886-6.885-1.08 1.081a.974.974 0 0 1-1.118.186c-.99-.485-1.479-.298-1.91.133-1.492 1.493-.546 4.96 2.066 7.573zm3.392-10.34l6.903 6.884c1.086-1.085 1.155-1.161 1.447-1.418l-6.91-6.91c-.264.292-.363.366-1.44 1.443zm20.73-4.893l.34-1.705-7.524-7.524-1.705.34a8.707 8.707 0 0 0-6.119 4.674c-2.928 5.856-2.783 5.596-3.094 6.099l7.322 7.322c.496-.294.255-.162 6.106-3.087a8.707 8.707 0 0 0 4.674-6.12z"></path>
            <path d="M6.615 22.853a.974.974 0 1 1-1.377 1.377.974.974 0 0 1 1.377-1.377zm2.754 2.754a.974.974 0 1 1-1.377 1.377.974.974 0 0 1 1.377-1.377z"></path>
        </g>
        <defs>
            <clipPath id="clip0">
                <path fill="#fff" d="M0 0h32v32H0z"></path>
            </clipPath>
        </defs>
    </symbol>
</svg>