<svg width="0" height="0" class="hidden">
    <symbol viewBox="0 0 32 32" xmlns="http://www.w3.org/2000/svg" id="icon-vegetables">
        <g clip-path="url(#clip0)">
            <path d="M32 3.703C32 1.661 30.283 0 28.173 0c-.9 0-1.755.304-2.431.844A3.897 3.897 0 0 0 23.308 0c-2.11 0-3.826 1.661-3.826 3.703 0 .193.016.385.047.574-2.78-.35-5.692.507-7.823 2.569-5.02 4.859-10.436 21.31-10.664 22.009a.859.859 0 0 0 .224.886c.008.007.372.383.916.216.721-.22 17.721-5.461 22.742-10.32 2.148-2.078 3.02-4.89 2.658-7.569.195.03.392.045.591.045 2.11 0 3.827-1.661 3.827-3.703 0-.871-.314-1.7-.872-2.353A3.622 3.622 0 0 0 32 3.703zm-8.36 14.69c-1.925 1.864-6.323 4.16-12.718 6.64a155.322 155.322 0 0 1-7.585 2.704c.35-1.003.852-2.398 1.461-3.992l.36.348a.93.93 0 0 0 1.283 0 .859.859 0 0 0 0-1.243l-.938-.909a104.337 104.337 0 0 1 1.89-4.471l1.655 1.602a.93.93 0 0 0 1.285 0 .859.859 0 0 0 0-1.243l-2.144-2.075c.764-1.594 1.502-2.987 2.207-4.165l2.543 2.462a.93.93 0 0 0 1.285 0 .86.86 0 0 0 0-1.243l-2.845-2.753c.565-.816 1.105-1.475 1.613-1.966a7.49 7.49 0 0 1 1.629-1.197l2.21 2.138a.93.93 0 0 0 1.284 0 .86.86 0 0 0 0-1.243l-1.658-1.605c2.489-.61 5.24.026 7.183 1.907a7.12 7.12 0 0 1 0 10.304zM29.283 6.79c.564.362.9.968.9 1.621 0 1.073-.901 1.945-2.01 1.945-.4 0-.792-.116-1.122-.332a8.927 8.927 0 0 0-2.127-3.176 9.29 9.29 0 0 0-3.282-2.058 1.901 1.901 0 0 1-.343-1.086c0-1.073.902-1.945 2.01-1.945.675 0 1.301.325 1.676.871a.926.926 0 0 0 1.513 0 2.028 2.028 0 0 1 1.675-.871c1.109 0 2.01.873 2.01 1.945 0 .653-.336 1.26-.9 1.622a.864.864 0 0 0 0 1.464z"></path>
        </g>
        <defs>
            <clipPath id="clip0">
                <path fill="#fff" d="M0 0h32v32H0z"></path>
            </clipPath>
        </defs>
    </symbol>
    <symbol viewBox="0 0 32 32" xmlns="http://www.w3.org/2000/svg" id="icon-flowers">
        <path d="M15.5 31c-.316 0-.527-.105-.632-.421L5.49 14.353c-.105-.21-.105-.526 0-.842.105-.211.421-.422.632-.422h18.649c.316 0 .526.106.632.422a.9.9 0 0 1 0 .737l-9.272 16.226c-.105.316-.421.526-.632.526zM7.493 14.775L15.5 28.577l7.902-13.802H7.492zm7.901-4.32a4.721 4.721 0 0 1-4.74-4.741c0-1.264.42-2.423 1.369-3.266a.81.81 0 0 1 1.053-.106l.106.106.737.737.948-.948a.827.827 0 0 1 1.16 0l.842.843.843-.843a.827.827 0 0 1 1.16 0c.947.843 1.369 2.107 1.369 3.372-.106 2.739-2.213 4.846-4.847 4.846zm-2.74-6.321c-.21.42-.42.948-.42 1.475 0 1.685 1.37 3.16 3.16 3.16 1.791 0 3.161-1.37 3.161-3.16 0-.527-.105-1.16-.421-1.58l-.738.842a.827.827 0 0 1-1.159 0l-.843-.843-.948.948a.827.827 0 0 1-1.159 0c-.21-.421-.421-.632-.632-.842z"></path>
        <path d="M7.703 11.825c-.421 0-.843-.105-1.264-.21-1.265-.317-2.213-1.16-2.845-2.213-.632-1.054-.737-2.318-.421-3.477.105-.421.421-.632.842-.632h.106c.105 0 .632.21 1.053.316l.316-1.264c0-.106.211-.317.317-.422.21-.105.421-.105.632-.105l1.159.316.316-1.054c.105-.421.527-.632.948-.527 1.264.317 2.213 1.16 2.845 2.213.632 1.054.737 2.423.421 3.582-.316 1.265-1.159 2.213-2.212 2.845-.633.421-1.475.632-2.213.632zm-3.16-4.741c0 .527.105 1.053.42 1.475.422.737 1.054 1.264 1.897 1.475.843.21 1.686.105 2.423-.316.738-.422 1.265-1.054 1.475-1.897.211-.842.106-1.685-.316-2.423-.316-.527-.737-.948-1.159-1.159L8.967 5.4c-.105.21-.21.42-.421.526-.21.105-.422.105-.632.105l-1.16-.316L6.44 6.98c-.106.421-.527.632-.949.526-.42-.21-.737-.316-.948-.421zm18.647 4.741c-.842 0-1.58-.21-2.317-.632-1.054-.632-1.897-1.58-2.213-2.845-.316-1.264-.21-2.528.422-3.582.632-1.054 1.685-1.896 2.844-2.213.422-.105.843.106.949.527l.316 1.054 1.159-.316c.21-.106.421 0 .632.105.21.105.316.316.421.527l.316 1.264c.422-.105.948-.316 1.054-.316h.316c.316 0 .632.21.737.632.316 1.16.106 2.424-.421 3.477-.632 1.054-1.58 1.897-2.845 2.213-.527 0-.948.105-1.37.105zm-1.58-7.48a3.061 3.061 0 0 0-1.159 1.159c-.421.737-.527 1.58-.316 2.423.21.843.738 1.475 1.475 1.896.738.422 1.58.527 2.423.316.843-.21 1.476-.737 1.897-1.475.316-.421.421-.948.421-1.475l-.948.316c-.421.106-.843-.105-.948-.526l-.316-1.265-1.16.316c-.42.106-.842-.105-.947-.526l-.422-1.16z"></path>
    </symbol>
    <symbol viewBox="0 0 32 32" xmlns="http://www.w3.org/2000/svg" id="icon-fruit-box">
        <path d="M15.86 16.578c-.492 0-.984-.37-.984-.985 0-2.217-1.848-3.942-3.942-3.942-2.094 0-3.942 1.848-3.942 3.942 0 .492-.369.985-.985.985s-.985-.37-.985-.985a5.782 5.782 0 0 1 5.789-5.79 5.782 5.782 0 0 1 5.789 5.79c.246.616-.246.985-.74.985z"></path>
        <path d="M25.715 16.578c-.493 0-.986-.37-.986-.985 0-2.217-1.847-3.942-3.941-3.942s-3.942 1.848-3.942 3.942c0 .492-.37.985-.985.985-.616 0-.986-.37-.986-.985a5.782 5.782 0 0 1 5.79-5.79 5.782 5.782 0 0 1 5.789 5.79c.123.616-.247.985-.74.985z"></path>
        <path d="M20.788 11.774c-.493 0-.986-.369-.986-.985 0-2.217-1.847-3.941-3.941-3.941s-3.942 1.847-3.942 3.941c0 .493-.369.986-.985.986s-.985-.37-.985-.986A5.782 5.782 0 0 1 15.738 5a5.782 5.782 0 0 1 5.789 5.79c.246.492-.246.985-.74.985zm4.188 14.781H6.993a.926.926 0 0 1-.863-.616l-3.079-9.854c-.123-.246 0-.615.123-.862.123-.246.493-.37.74-.37h23.895c.246 0 .616.124.739.37.123.247.246.493.123.862l-2.956 9.854c0 .37-.37.616-.74.616zM7.608 24.708h16.629l2.34-8.007H5.145l2.463 8.007z"></path>
    </symbol>
    <symbol viewBox="0 0 32 32" xmlns="http://www.w3.org/2000/svg" id="icon-sur">
        <path d="M27.045 11.48c-.122.96-.733 1.8-1.588 2.28v8.28c0 2.76-2.321 5.16-5.253 5.16H10.43c-2.81 0-5.254-2.28-5.254-5.16v-8.4a2.916 2.916 0 0 1-1.466-2.52V11c-.244.6-.366 1.32-.366 2.04v9c0 3.84 3.176 6.96 7.086 6.96h9.896c3.91 0 7.086-3.12 7.086-6.96v-8.76c-.122-.6-.122-1.2-.367-1.8zm-2.932-3.24c.367 0 .733.12 1.1.24-.489-.48-.978-.84-1.466-1.08-.123-.12-.245-.12-.367-.24a6.721 6.721 0 0 0-3.054-.72H10.43c-1.1 0-2.077.24-2.932.6-.122.12-.367.12-.489.24-.61.36-1.1.72-1.588 1.2.366-.24.977-.36 1.466-.36h17.226v.12z"></path>
        <path d="M26.923 8.48c-.733-.72-1.71-1.08-2.81-1.08H6.765c-2.2 0-3.91 1.68-3.91 3.84 0 .72.122 1.32.489 1.92.122.24.366.6.61.84.367.36.734.6 1.222.84.49.24.978.36 1.589.36h17.348c.489 0 .977-.12 1.344-.24.733-.24 1.344-.72 1.833-1.44.366-.6.733-1.32.733-2.16 0-1.32-.49-2.28-1.1-2.88zM6.765 14c-.611 0-1.1-.12-1.589-.48A2.916 2.916 0 0 1 3.71 11v-.12c0-1.08.611-1.92 1.589-2.4.366-.24.977-.36 1.466-.36h7.696V14H6.765zm18.692-.24c-.367.24-.855.36-1.344.36h-7.819V8.24h7.82c.366 0 .732.12 1.099.24 1.1.48 1.832 1.44 1.832 2.76v.36c-.122.84-.733 1.68-1.588 2.16z"></path>
        <path d="M25.09 6.56c-.366-.12-.61-.12-.977-.12H6.765c-.367 0-.733 0-1.1.12C3.588 7.04 2 8.96 2 11.12c0 1.32.489 2.52 1.466 3.36.489.48 1.1.84 1.833 1.08.488.24.977.24 1.588.24h17.348c.489 0 .978-.12 1.344-.24.733-.24 1.344-.6 1.833-.96.977-.84 1.588-2.16 1.588-3.48-.122-2.28-1.71-4.08-3.91-4.56zm1.955 4.92c-.122.96-.733 1.8-1.588 2.28-.367.24-.855.36-1.344.36H6.765c-.611 0-1.1-.12-1.589-.48a2.916 2.916 0 0 1-1.466-2.52V11c0-1.08.611-1.92 1.589-2.4.366-.24.977-.36 1.466-.36h17.348c.367 0 .733.12 1.1.24 1.1.48 1.832 1.44 1.832 2.76v.24z"></path>
        <path d="M16.294 7.28h-1.833v20.64h1.833V7.28zm8.919 0H23.38c0-1.92-1.588-3.48-3.543-3.48s-3.543 1.56-3.543 3.48h-1.833c0-2.88 2.444-5.28 5.376-5.28 2.932 0 5.376 2.4 5.376 5.28z"></path>
        <path d="M16.294 7.28h-1.833c0-1.92-1.588-3.48-3.542-3.48-1.955 0-3.543 1.56-3.543 3.48H5.543C5.543 4.4 7.986 2 10.919 2c2.932 0 5.375 2.4 5.375 5.28z"></path>
    </symbol>
    <symbol viewBox="0 0 32 32" xmlns="http://www.w3.org/2000/svg" id="icon-diferent">
        <path d="M11.366 17.295C7.326 17.295 4 13.841 4 9.648 4 5.454 7.327 2 11.366 2c4.04 0 7.367 3.454 7.367 7.648 0 4.193-3.327 7.647-7.367 7.647zm0-13.321c-2.97 0-5.346 2.467-5.346 5.55 0 3.084 2.376 5.55 5.346 5.55s5.347-2.466 5.347-5.55c0-3.083-2.376-5.55-5.347-5.55zM12.317 30c-2.733 0-4.871-2.344-4.871-5.057 0-2.714 2.257-5.058 4.87-5.058 2.615 0 4.872 2.344 4.872 5.058 0 2.713-2.138 5.057-4.871 5.057zm0-8.141c-1.664 0-2.97 1.357-2.97 3.084s1.306 3.083 2.97 3.083c1.663 0 2.97-1.356 2.97-3.083s-1.307-3.084-2.97-3.084zm11.763-.987c-2.14 0-3.922-1.85-3.922-4.07s1.783-4.07 3.921-4.07c2.139 0 3.921 1.85 3.921 4.07s-1.663 4.07-3.92 4.07zm0-6.167c-1.07 0-2.02.863-2.02 2.097 0 1.233.831 2.097 2.02 2.097 1.069 0 2.019-.864 2.019-2.097 0-1.234-.95-2.097-2.02-2.097z"></path>
        <path d="M11.366 11.374c.919 0 1.664-.773 1.664-1.726 0-.954-.745-1.727-1.664-1.727-.918 0-1.663.773-1.663 1.727 0 .953.745 1.726 1.663 1.726z"></path>
    </symbol>
    <symbol viewBox="0 0 32 32" xmlns="http://www.w3.org/2000/svg" id="icon-hrc">
        <path d="M12.576 18.773h-1.34V16.63H9.041v2.143h-1.34v-5.42h1.34v2.017h2.193v-2.017h1.34v5.42zm5.483 0h-1.584l-.853-1.89h-.731v1.89h-1.34v-5.42h2.68c.61 0 .975.126 1.34.504.366.378.488.756.488 1.26 0 .379-.122.757-.366 1.009-.243.252-.487.504-.73.504l1.096 2.143zm-2.072-3.025c.244 0 .366 0 .488-.126s.243-.252.243-.378-.121-.378-.243-.378-.244-.127-.488-.127h-1.096v1.135h1.096v-.126zm5.362 3.152c-.853 0-1.462-.253-2.072-.757-.487-.504-.853-1.26-.853-2.017 0-.882.244-1.513.853-2.017.488-.504 1.219-.756 2.072-.756 1.096 0 1.828.504 2.315 1.513l-1.219.63a.968.968 0 0 0-.487-.504c-.244-.127-.487-.253-.731-.253-.366 0-.731.127-1.097.505-.365.378-.365.63-.365 1.134 0 .504.122.883.365 1.135.244.252.61.504 1.097.504.244 0 .487-.126.731-.252s.366-.378.487-.505l1.219.63c-.244.379-.488.757-.853 1.01-.366-.253-.853 0-1.462 0z"></path>
        <path d="M15.5 31C7.58 31 1 24.32 1 16 1 7.807 7.458 1 15.5 1 23.42 1 30 7.68 30 16s-6.458 15-14.5 15zm0-28.11C8.555 2.89 2.828 8.816 2.828 16S8.555 29.11 15.5 29.11 28.172 23.184 28.172 16 22.445 2.89 15.5 2.89z"></path>
    </symbol>
    <symbol viewBox="0 0 32 32" xmlns="http://www.w3.org/2000/svg" id="icon-fruit">
        <g clip-path="url(#clip0)">
            <path d="M24.66 15.113c-.742-.965-1.361-1.81-1.732-2.774-.248-.604-.371-1.086-.619-1.69-.742-2.291-1.608-5.186-5.32-5.548V1H15.01v.965c-.247-.241-.495-.362-.866-.483C12.412.76 10.433 1 8.577 2.206c-.37.241-.495.603-.495 1.086.248 1.206.99 2.171 2.104 2.774.494.241.99.362 1.608.483-1.114 1.085-1.732 2.774-2.103 4.1-.124.604-.371 1.207-.619 1.69-.371.964-.99 1.809-1.732 2.774-1.484 1.93-3.216 4.342-3.34 8.202C4 28.14 7.835 32 12.66 32c.742 0 1.237-.12 1.732-.241.495-.12.866-.242 1.608-.242.742 0 1.113.121 1.608.242.495.12.99.241 1.732.241 4.825 0 8.66-3.86 8.66-8.685-.124-3.86-1.98-6.272-3.34-8.202zm-14.35-11.7c1.113-.483 2.226-.604 3.092-.242.619.241.99.724 1.237 1.086-1.36.362-2.598.362-3.464-.12-.37-.121-.618-.363-.866-.725zm9.03 26.657c-.495 0-.742-.12-1.237-.241A8.288 8.288 0 0 0 16 29.587c-.99 0-1.608.121-2.103.242-.371.12-.742.241-1.237.241-3.712 0-6.68-3.015-6.68-6.755 0-3.257 1.484-5.187 2.968-7.117.743-1.085 1.485-2.05 1.98-3.256.247-.604.371-1.207.618-1.81C12.412 8.358 13.031 6.79 16 6.79c2.97 0 3.588 1.568 4.454 4.342.247.603.37 1.207.618 1.81.495 1.206 1.237 2.17 1.98 3.256 1.36 1.93 2.845 3.86 2.969 7.117-.124 3.74-2.97 6.755-6.68 6.755z"></path>
        </g>
        <defs>
            <clipPath id="clip0">
                <path fill="#fff" d="M0 0h32v32H0z"></path>
            </clipPath>
        </defs>
    </symbol>
    <symbol viewBox="0 0 32 32" xmlns="http://www.w3.org/2000/svg" id="icon-nuts">
        <path fill-rule="evenodd" clip-rule="evenodd" d="M6.477 4.139C8.703 2.786 11.812 2 16 2s7.297.786 9.523 2.139c2.248 1.366 3.528 3.272 4.102 5.353 1.126 4.076-.469 8.723-2.336 11.443-1.514 2.205-3.67 3.98-5.706 5.299-2.04 1.32-4.022 2.22-5.254 2.65L16 29l-.33-.115c-1.23-.431-3.212-1.33-5.253-2.651-2.037-1.318-4.192-3.094-5.706-5.3-1.867-2.719-3.462-7.366-2.336-11.442.574-2.081 1.854-3.987 4.102-5.353zm-2.192 5.873c-.92 3.335.395 7.386 2.062 9.814 1.314 1.913 3.238 3.52 5.151 4.76 1.728 1.117 3.399 1.903 4.502 2.323 1.103-.42 2.774-1.206 4.502-2.324 1.913-1.238 3.837-2.846 5.15-4.759 1.668-2.428 2.984-6.48 2.063-9.814a6.888 6.888 0 0 0-1.192-2.408 39.739 39.739 0 0 1-6.347 1.32c-3.987.492-9.262.519-14.712-1.303a6.892 6.892 0 0 0-1.179 2.39zm2.828-3.937c4.723 1.376 9.275 1.334 12.819.896a37.743 37.743 0 0 0 4.894-.938 8.494 8.494 0 0 0-.337-.216c-1.817-1.104-4.531-1.85-8.489-1.85-3.958 0-6.672.746-8.489 1.85-.137.084-.27.17-.398.258zm20.091 1.329z"></path>
    </symbol>
    <symbol viewBox="0 0 32 32" xmlns="http://www.w3.org/2000/svg" id="icon-dry-fruits">
        <path d="M27.938 23.285c-.371 1.861-2.225 2.854-2.472 2.854A14.707 14.707 0 0 1 18.3 28c-3.954 0-7.785-1.489-10.75-4.466l1.359-1.365.618.62c2.1 1.861 4.695 2.854 7.414 3.226.618 0 1.236.124 1.853 0 1.977-.124 3.955-.62 5.808-1.613.37-.248 1.36-.868 1.483-1.613.124-.496-.247-.992-.865-1.737l-5.066-5.086s.123 0 .123-.124c.618-.373 1.236-.373 1.607-.249.494.124.741.373.865.373l3.83 3.846c1.113 1.24 1.607 2.357 1.36 3.473zM15.21 10.755s-.124.124-.124.248l-.618-.62-4.572-4.59c-.618-.621-1.235-.87-1.73-.87-.741.125-1.359 1.117-1.606 1.49a13.686 13.686 0 0 0-1.606 5.707v1.86c.247 2.73 1.359 5.46 3.212 7.569.247.248.371.496.618.62l-1.36 1.365C2.73 18.819 1.618 11.375 4.83 5.544c.124-.124.989-2.11 2.842-2.481 1.112-.249 2.224.248 3.337 1.364l3.83 3.846c0 .124.247.373.37.869.248.496.248.992 0 1.613z"></path>
        <path d="M15.58 15.47c.248.247.495.371.742.62l-7.29 7.32-1.236-1.241 7.414-7.444c0 .372.247.62.37.744zm3.46 1.116v1.984l-.246 7.692v.992H16.94v-.992l.247-7.692v-1.984a4.66 4.66 0 0 0 1.854 0zm-4.448-2.73h-1.977l-7.661.124h-.99v-1.86h.99l7.66-.125h1.854c0 .62 0 1.241.124 1.861z"></path>
        <path d="M21.883 15.717a1.712 1.712 0 0 0-.371.497c-.247.248-.494.372-.741.62-.495.372-1.113.62-1.73.744a4.66 4.66 0 0 1-1.854 0c-.494-.124-.989-.372-1.483-.62-.247-.124-.494-.372-.741-.62s-.37-.497-.618-.745c-.37-.496-.494-.992-.618-1.613a4.716 4.716 0 0 1 0-1.86c.124-.62.37-1.241.741-1.737.124-.249.371-.497.618-.745.124-.124.248-.248.495-.372.123.372 0 .992-.247 1.613 0 0-.124.124-.124.248-.247.372-.37.62-.37.992a4.716 4.716 0 0 0 0 1.861c.123.373.246.62.37.869.123.248.37.496.618.744.247.248.494.373.741.62.247.125.618.249.865.373a4.664 4.664 0 0 0 1.854 0l1.112-.372s.123 0 .123-.124c.371-.373.989-.373 1.36-.373z"></path>
        <path d="M22.748 16.09c-.124.248-.371.496-.618.744s-.494.372-.742.62c-.741.497-1.606.869-2.471.993a4.664 4.664 0 0 1-1.854 0c-.741-.124-1.482-.496-2.1-.993-.247-.124-.494-.372-.742-.62-.247-.248-.37-.496-.617-.744-.495-.62-.742-1.365-.99-2.234a4.716 4.716 0 0 1 0-1.86c.124-.869.495-1.613.99-2.358.123-.248.37-.496.617-.744.248-.248.495-.372.742-.62 0 .123.247.372.37.868.124.372 0 .992-.247 1.613 0 0-.123.124-.123.248-.247.372-.37.62-.37.992a4.716 4.716 0 0 0-.001 1.861c.124.373.247.62.37.869.124.248.372.496.619.744s.494.372.741.62c.247.125.618.249.865.373a4.66 4.66 0 0 0 1.854 0l1.112-.372s.123 0 .123-.124c.618-.373 1.236-.373 1.607-.249.494.124.741.373.865.373z"></path>
    </symbol>
    <symbol viewBox="0 0 32 32" fxmlns="http://www.w3.org/2000/svg" id="icon-candied">
        <path d="M15.5 31C7.513 31 1 24.263 1 16S7.513 1 15.5 1 30 7.737 30 16s-6.513 15-14.5 15zm0-28.093C8.496 2.907 2.843 8.754 2.843 16c0 7.246 5.653 13.093 12.657 13.093 7.004 0 12.657-5.847 12.657-13.093 0-7.246-5.653-13.093-12.657-13.093z"></path>
        <path d="M13.411 11.042c.95 0 1.72-.796 1.72-1.78 0-.982-.77-1.779-1.72-1.779s-1.72.797-1.72 1.78.77 1.78 1.72 1.78zm4.178 0c.95 0 1.72-.796 1.72-1.78 0-.982-.77-1.779-1.72-1.779s-1.72.797-1.72 1.78.77 1.78 1.72 1.78zm4.424 4.577c.95 0 1.72-.797 1.72-1.78s-.77-1.78-1.72-1.78-1.72.797-1.72 1.78.77 1.78 1.72 1.78zm0 4.449c.95 0 1.72-.797 1.72-1.78s-.77-1.78-1.72-1.78-1.72.797-1.72 1.78.77 1.78 1.72 1.78zM8.987 15.619c.95 0 1.72-.797 1.72-1.78s-.77-1.78-1.72-1.78-1.72.797-1.72 1.78.77 1.78 1.72 1.78zm0 4.449c.95 0 1.72-.797 1.72-1.78s-.77-1.78-1.72-1.78-1.72.797-1.72 1.78.77 1.78 1.72 1.78zm4.424 4.576c.95 0 1.72-.797 1.72-1.78 0-.982-.77-1.78-1.72-1.78s-1.72.798-1.72 1.78c0 .983.77 1.78 1.72 1.78zm4.178 0c.95 0 1.72-.797 1.72-1.78 0-.982-.77-1.78-1.72-1.78s-1.72.798-1.72 1.78c0 .983.77 1.78 1.72 1.78z"></path>
    </symbol>
    <symbol viewBox="0 0 32 32" xmlns="http://www.w3.org/2000/svg" id="icon-basket">
        <g clip-path="url(#clip0)">
            <path d="M28.444 17.125v-4.636C28.444 5.665 22.984 0 16.127 0 9.397 0 3.81 5.536 3.81 12.49v4.635H0v1.93h1.524v5.666C1.524 27.682 3.937 30 6.73 30h18.54c2.92 0 5.206-2.446 5.206-5.279v-5.665H32v-1.931h-3.556zM5.714 12.36c0-5.794 4.699-10.558 10.413-10.558S26.54 6.567 26.54 12.36v4.635H5.714V12.36zm23.111 12.36c0 1.931-1.523 3.476-3.428 3.476H6.857c-1.905 0-3.428-1.545-3.428-3.476v-1.93h25.27v1.931h.126zm0-3.863H3.555v-1.931h25.27v1.931z"></path>
            <path d="M16.127 14.55c.982 0 1.778-.808 1.778-1.803 0-.996-.796-1.803-1.778-1.803s-1.778.807-1.778 1.803a1.79 1.79 0 0 0 1.778 1.802z"></path>
        </g>
        <defs>
            <clipPath id="clip0">
                <path fill="#fff" d="M0 0h32v32H0z"></path>
            </clipPath>
        </defs>
    </symbol>
    <symbol viewBox="0 0 32 32" xmlns="http://www.w3.org/2000/svg" id="icon-cookes">
        <path d="M11.322 6.898c.737.738.737 1.844 0 2.58-.737.738-1.843.738-2.58 0-.738-.736-.738-1.842 0-2.58.737-.737 1.966-.737 2.58 0zM22.75 10.83c.737.738.737 1.844 0 2.581-.737.737-1.843.737-2.58 0-.738-.737-.738-1.843 0-2.58.737-.738 1.843-.738 2.58 0zm-9.339 11.06c.737.737.737 1.843 0 2.58-.737.738-1.843.738-2.58 0-.738-.737-.738-1.843 0-2.58a2.037 2.037 0 0 1 2.58 0zm-3.318-5.776c.369.369.369.983 0 1.23-.368.368-.983.368-1.229 0-.368-.37-.368-.984 0-1.23.246-.368.86-.368 1.23 0zm5.53-1.843c.369.369.369.983 0 1.229-.369.369-.983.369-1.229 0-.369-.369-.369-.983 0-1.229.246-.369.86-.369 1.229 0zm3.687-7.496c.368.37.368.983 0 1.23-.37.245-.984.368-1.23 0-.245-.37-.368-.984 0-1.23.37-.368.86-.368 1.23 0z"></path>
        <path d="M15.5 1C7.513 1 1 7.513 1 15.5S7.513 30 15.5 30h.983a.84.84 0 0 0 .86-.86c0-1.352.738-2.58 1.966-3.195.246-.123.369-.369.492-.614.123-.246 0-.492-.123-.738-.369-.614-.492-1.229-.492-1.843a3.566 3.566 0 0 1 3.564-3.564c.614 0 1.229.123 1.843.492.246.123.492.123.738.123.245-.123.491-.246.614-.492a3.542 3.542 0 0 1 3.195-1.966c.491 0 .86-.491.86-.983v-.86C30 7.39 23.487 1 15.5 1zm12.657 14.5a5.64 5.64 0 0 0-3.44 2.089 5.565 5.565 0 0 0-1.967-.369c-2.95 0-5.407 2.458-5.407 5.407 0 .737.123 1.352.369 1.966a5.638 5.638 0 0 0-2.09 3.44H15.5A12.639 12.639 0 0 1 2.843 15.378 12.639 12.639 0 0 1 15.5 2.72c7.004 0 12.657 5.653 12.657 12.78z"></path>
    </symbol>
    <symbol viewBox="0 0 32 32" xmlns="http://www.w3.org/2000/svg" id="icon-tea">
        <g clip-path="url(#clip0)">
            <path d="M12.952 29C5.77 29 0 25.127 0 20.258c0-4.869 5.769-8.741 12.952-8.741 7.184 0 12.953 3.872 12.953 8.741 0 4.87-5.769 8.742-12.953 8.742zm0-15.713c-6.204 0-11.32 3.209-11.32 7.082 0 3.873 5.116 7.082 11.32 7.082 6.204 0 11.32-3.21 11.32-7.082 0-3.984-5.007-7.082-11.32-7.082z"></path>
            <path d="M20.68 12.512c-.544-.11-.87-.442-.762-.885 0-.332.11-.664.11-.885 0-3.984-3.157-7.082-6.967-7.082-3.918 0-6.966 3.209-6.966 7.082 0 .332 0 .664.109.885.109.443-.218.885-.653.885-.435 0-.87-.221-.87-.664 0-.332-.11-.774-.11-1.106C4.571 5.872 8.49 2 13.17 2c4.79 0 8.599 3.984 8.599 8.742 0 .332 0 .774-.11 1.106-.217.332-.543.664-.979.664zm-7.292 4.427c-5.007 0-8.817-1.439-9.034-1.55l.544-1.549c.109 0 8.38 3.21 16.109 0l.653 1.55c-2.83 1.106-5.769 1.549-8.272 1.549zm10.34 8.188l-.98-1.328 7.402-5.533-.327-1.106-4.898 1.77-.544-1.549 6.53-2.434L32 18.93l-8.272 6.197z"></path>
            <path d="M12.952 10.3c.842 0 1.524-.694 1.524-1.55 0-.856-.682-1.55-1.524-1.55-.841 0-1.523.694-1.523 1.55 0 .856.682 1.55 1.523 1.55z"></path>
        </g>
        <defs>
            <clipPath id="clip0">
                <path fill="#fff" d="M0 0h32v32H0z"></path>
            </clipPath>
        </defs>
    </symbol>
    <symbol viewBox="0 0 32 32" xmlns="http://www.w3.org/2000/svg" id="icon-spices">
        <path d="M29.085 7.334c.59-.59.915-1.375.915-2.21 0-.834-.325-1.619-.915-2.209A3.104 3.104 0 0 0 26.875 2c-.834 0-1.62.325-2.21.915l-1.361 1.363A14.4 14.4 0 0 0 15.5 2 14.405 14.405 0 0 0 5.247 6.247 14.405 14.405 0 0 0 1 16.5c0 3.873 1.508 7.514 4.247 10.253A14.405 14.405 0 0 0 15.5 31c3.873 0 7.514-1.508 10.253-4.247A14.406 14.406 0 0 0 30 16.5c0-2.791-.785-5.474-2.278-7.804l1.363-1.362zm-3.218-3.217c.27-.27.627-.418 1.008-.418s.739.148 1.008.418c.27.269.418.627.418 1.008 0 .38-.148.738-.418 1.008l-6.988 6.988-2.016-2.016 6.988-6.988zM24.206 16.5c0 4.8-3.906 8.706-8.706 8.706-4.8 0-8.706-3.906-8.706-8.706 0-4.8 3.906-8.706 8.706-8.706 1.226 0 2.43.258 3.537.75l-1.359 1.36-.31-.31a.85.85 0 0 0-1.2 1.201l5.037 5.038a.846.846 0 0 0 1.201 0 .85.85 0 0 0 0-1.201l-.309-.31 1.359-1.359a8.706 8.706 0 0 1 .75 3.537zm4.095 0c0 7.058-5.743 12.8-12.801 12.8S2.7 23.559 2.7 16.5c0-7.058 5.742-12.8 12.8-12.8 2.338 0 4.59.623 6.57 1.811l-1.76 1.76a10.397 10.397 0 0 0-4.81-1.176c-5.737 0-10.405 4.668-10.405 10.405 0 5.737 4.668 10.405 10.405 10.405 5.737 0 10.405-4.668 10.405-10.405 0-1.682-.406-3.33-1.177-4.81l1.76-1.76a12.713 12.713 0 0 1 1.813 6.57z"></path>
        <path d="M12.315 11.555a.855.855 0 0 0-.601.249.857.857 0 0 0-.249.6c0 .225.091.444.249.602a.856.856 0 0 0 .6.248c.224 0 .443-.09.601-.248a.856.856 0 0 0 .25-.601.857.857 0 0 0-.25-.601.855.855 0 0 0-.6-.249zm3.185 4.55a.854.854 0 0 0-.85.85c0 .224.091.443.25.6a.857.857 0 0 0 .6.25.85.85 0 0 0 .6-.25.857.857 0 0 0 .25-.6.855.855 0 0 0-.25-.6.855.855 0 0 0-.6-.25zm-5.688 0a.852.852 0 0 0-.85.85.855.855 0 0 0 .85.85.849.849 0 0 0 .6-.25.856.856 0 0 0 .25-.6.855.855 0 0 0-.85-.85zm2.048 3.64a.853.853 0 0 0-.6 1.45.855.855 0 0 0 .6.25.852.852 0 0 0 .6-.249.857.857 0 0 0 .25-.6.857.857 0 0 0-.25-.602.855.855 0 0 0-.6-.248zm8.418-2.047a.856.856 0 0 0-.601.249.855.855 0 0 0-.249.6c0 .224.09.443.249.601a.855.855 0 0 0 .6.25.855.855 0 0 0 .602-.25.857.857 0 0 0 .248-.6.856.856 0 0 0-.248-.601.856.856 0 0 0-.601-.25zm-2.731 2.958a.856.856 0 0 0-.6.248.855.855 0 0 0-.25.6.853.853 0 0 0 .85.851.857.857 0 0 0 .601-.25.855.855 0 0 0 .249-.6.855.855 0 0 0-.249-.6.855.855 0 0 0-.6-.25z"></path>
    </symbol>
    <symbol viewBox="0 0 32 32" xmlns="http://www.w3.org/2000/svg" id="icon-spices2">
        <g clip-path="url(#clip0)">
            <path d="M25.557 19.611l-5.343 2.672c-.904.452-1.696.996-2.319 1.619l-2.992 2.992c.585 1.702-.03 2.848-.715 3.532-1.165 1.166-2.925 1.55-4.955 1.082-1.866-.431-3.773-1.548-5.372-3.147-1.599-1.599-2.716-3.506-3.147-5.372-.468-2.03-.084-3.79 1.082-4.955.688-.689 1.828-1.331 3.485-.777l2.994-2.994c.663-.663 1.259-1.444 1.664-2.255l2.671-5.343A10.72 10.72 0 0 1 20.09.953l2.26-.49c.32-.063.65.037.88.267l8.262 8.262c.23.23.33.56.266.88l-.489 2.26a10.721 10.721 0 0 1-5.712 7.48zM5.238 26.985c2.612 2.612 6.08 3.558 7.573 2.065.365-.364.628-.853.088-1.954a.973.973 0 0 1 .185-1.117l1.082-1.082-6.886-6.885-1.08 1.081a.974.974 0 0 1-1.118.186c-.99-.485-1.479-.298-1.91.133-1.492 1.493-.546 4.96 2.066 7.573zm3.392-10.34l6.903 6.884c1.086-1.085 1.155-1.161 1.447-1.418l-6.91-6.91c-.264.292-.363.366-1.44 1.443zm20.73-4.893l.34-1.705-7.524-7.524-1.705.34a8.707 8.707 0 0 0-6.119 4.674c-2.928 5.856-2.783 5.596-3.094 6.099l7.322 7.322c.496-.294.255-.162 6.106-3.087a8.707 8.707 0 0 0 4.674-6.12z"></path>
            <path d="M6.615 22.853a.974.974 0 1 1-1.377 1.377.974.974 0 0 1 1.377-1.377zm2.754 2.754a.974.974 0 1 1-1.377 1.377.974.974 0 0 1 1.377-1.377z"></path>
        </g>
        <defs>
            <clipPath id="clip0">
                <path fill="#fff" d="M0 0h32v32H0z"></path>
            </clipPath>
        </defs>
    </symbol>

    <symbol viewBox="0 0 34 40" xmlns="http://www.w3.org/2000/svg" id="icon-benefit1">
        <path d="M25.9139 16.0964C25.4537 15.2597 24.7772 14.5618 23.9552 14.0758C23.1332 13.5897 22.1957 13.3333 21.2407 13.3333H19.3333V9.33333H24.6667C26.9644 9.33073 29.1673 8.41681 30.7921 6.79205C32.4168 5.1673 33.3307 2.96441 33.3333 0.666667C33.3333 0.489856 33.2631 0.320288 33.1381 0.195264C33.013 0.0702402 32.8435 1.76808e-06 32.6667 0H0.666667C0.489856 1.76808e-06 0.320288 0.0702402 0.195264 0.195264C0.0702403 0.320288 1.76808e-06 0.489856 0 0.666667C0.00260065 2.96441 0.916528 5.1673 2.54128 6.79205C4.16603 8.41681 6.36892 9.33073 8.66667 9.33333H14V13.3333H12.0926C11.1376 13.3333 10.2002 13.5897 9.37813 14.0758C8.55609 14.5618 7.87964 15.2597 7.41943 16.0964L7.19885 16.4975C3.35612 23.4957 1.33885 31.3495 1.33333 39.3333C1.33334 39.5101 1.40357 39.6797 1.5286 39.8047C1.65362 39.9298 1.82319 40 2 40H31.3333C31.5101 40 31.6797 39.9298 31.8047 39.8047C31.9298 39.6797 32 39.5101 32 39.3333C31.9945 31.3495 29.9772 23.4957 26.1345 16.4975L25.9139 16.0964ZM1.36336 1.33333H31.97C31.8015 3.15447 30.9594 4.84719 29.6086 6.08021C28.2579 7.31324 26.4956 7.99783 24.6667 8H8.66667C6.83775 7.99783 5.07546 7.31324 3.72469 6.08021C2.37391 4.84719 1.53188 3.15447 1.36336 1.33333ZM15.3333 9.33333H18V13.3333H15.3333V9.33333ZM2.67155 38.6667C2.78598 31.134 4.74135 23.7437 8.36715 17.1401L8.58773 16.739C8.93289 16.1114 9.44022 15.588 10.0568 15.2235C10.6733 14.859 11.3764 14.6667 12.0926 14.6667H21.2407C21.957 14.6667 22.6601 14.859 23.2766 15.2235C23.8931 15.588 24.4004 16.1114 24.7456 16.739L24.9662 17.1401C28.592 23.7437 30.5473 31.134 30.6618 38.6667H2.67155Z"/>
        <path d="M16.6666 16.6667C14.6888 16.6667 12.7554 17.2531 11.1109 18.352C9.46644 19.4508 8.18471 21.0126 7.42784 22.8398C6.67096 24.6671 6.47293 26.6777 6.85878 28.6176C7.24463 30.5574 8.19704 32.3392 9.59556 33.7377C10.9941 35.1362 12.7759 36.0887 14.7157 36.4745C16.6555 36.8604 18.6662 36.6623 20.4935 35.9055C22.3207 35.1486 23.8825 33.8668 24.9813 32.2224C26.0801 30.5779 26.6666 28.6445 26.6666 26.6667C26.6636 24.0154 25.6091 21.4736 23.7344 19.5989C21.8597 17.7242 19.3179 16.6697 16.6666 16.6667ZM21.5628 33.8138L20.9106 32.6842L19.7559 33.3508L20.4094 34.4827C19.4443 34.9468 18.4011 35.2267 17.3333 35.3079V34H16V35.3079C14.9322 35.2267 13.8889 34.9468 12.9239 34.4827L13.5773 33.3508L12.4226 32.6842L11.7705 33.8138C10.8886 33.2076 10.1257 32.4446 9.51951 31.5628L10.6491 30.9106L9.98243 29.756L8.85065 30.4095C8.38645 29.4444 8.10655 28.4011 8.02536 27.3333H9.3333V26H8.02536C8.10655 24.9322 8.38645 23.8889 8.85065 22.9239L9.98243 23.5773L10.6491 22.4227L9.51951 21.7705C10.1257 20.8887 10.8886 20.1257 11.7704 19.5196L12.4226 20.6492L13.5773 19.9825L12.9239 18.8507C13.8889 18.3865 14.9322 18.1066 16 18.0254V19.3333H17.3333V18.0254C18.4011 18.1066 19.4443 18.3865 20.4094 18.8507L19.7559 19.9825L20.9106 20.6492L21.5628 19.5196C22.4446 20.1257 23.2076 20.8887 23.8138 21.7705L22.6842 22.4227L23.3508 23.5773L24.4826 22.9239C24.9468 23.8889 25.2267 24.9322 25.3079 26H24V27.3333H25.3079C25.2267 28.4011 24.9468 29.4444 24.4826 30.4095L23.3508 29.756L22.6842 30.9106L23.8138 31.5628C23.2076 32.4446 22.4446 33.2076 21.5628 33.8138Z"/>
        <path d="M17.3333 24.7814V21.3333H16V24.7814C15.5552 24.9386 15.1803 25.2481 14.9415 25.655C14.7028 26.062 14.6157 26.5402 14.6954 27.0052C14.7752 27.4702 15.0168 27.892 15.3775 28.1961C15.7382 28.5002 16.1948 28.667 16.6666 28.667C17.1384 28.667 17.595 28.5002 17.9557 28.1961C18.3164 27.892 18.558 27.4702 18.6378 27.0052C18.7176 26.5402 18.6304 26.062 18.3917 25.655C18.153 25.2481 17.7781 24.9386 17.3333 24.7814ZM16.6666 27.3333C16.5348 27.3333 16.4059 27.2942 16.2962 27.221C16.1866 27.1477 16.1012 27.0436 16.0507 26.9218C16.0002 26.8 15.987 26.6659 16.0128 26.5366C16.0385 26.4073 16.102 26.2885 16.1952 26.1953C16.2885 26.102 16.4072 26.0385 16.5366 26.0128C16.6659 25.9871 16.7999 26.0003 16.9217 26.0508C17.0436 26.1012 17.1477 26.1867 17.2209 26.2963C17.2942 26.4059 17.3333 26.5348 17.3333 26.6667C17.3331 26.8434 17.2628 27.0129 17.1378 27.1379C17.0128 27.2628 16.8434 27.3331 16.6666 27.3333Z"/>
    </symbol>

    <symbol viewBox="0 0 54 40" xmlns="http://www.w3.org/2000/svg" id="icon-benefit2">
        <path d="M43.177 12.9714H39.8193L40.831 1.35582C40.8329 1.33477 40.8332 1.31404 40.8333 1.29332C40.8333 1.29154 40.8335 1.28988 40.8335 1.28811C40.8335 1.28779 40.8335 1.28759 40.8335 1.28727C40.8335 0.971127 40.6428 0.69248 40.3624 0.571334C40.3601 0.570292 40.3578 0.569042 40.3554 0.568001C40.338 0.560709 40.32 0.554458 40.3018 0.548417C40.2951 0.546229 40.2886 0.543521 40.2818 0.541437C40.267 0.536958 40.2518 0.533417 40.2367 0.529771C40.2261 0.527271 40.2159 0.52425 40.2052 0.522167C40.1919 0.519563 40.1782 0.517896 40.1646 0.515917C40.1519 0.514042 40.1394 0.511854 40.1266 0.510708C40.1244 0.5105 40.1225 0.510083 40.1203 0.509875C40.1065 0.508625 40.093 0.508833 40.0793 0.508312C40.0702 0.508 40.0612 0.506958 40.052 0.506958H40.0422C40.0414 0.506958 40.0406 0.506958 40.0398 0.506958H24.0636C23.6324 0.506958 23.2824 0.856959 23.2824 1.28821C23.2824 1.71842 23.6324 2.06946 24.0636 2.06946H39.2005L37.6457 19.9211C37.6455 19.9225 37.6455 19.9238 37.6453 19.9252L37.253 24.4294H10.1061L10.5601 19.7421H15.729C16.1606 19.7421 16.5103 19.3923 16.5103 18.9609C16.5103 18.5294 16.1606 18.1796 15.729 18.1796H10.7116L11.6704 8.28428H19.897C20.3285 8.28428 20.6782 7.93449 20.6782 7.50303C20.6782 7.07157 20.3285 6.72178 19.897 6.72178H11.8218L12.2727 2.06946H20.9386C21.3688 2.06946 21.7199 1.71842 21.7199 1.28821C21.7199 0.856959 21.3688 0.506958 20.9386 0.506958H11.5636C11.5632 0.506958 11.5629 0.507062 11.5624 0.507062C11.1955 0.506958 10.8771 0.765293 10.8001 1.12342C10.7996 1.12602 10.7987 1.12852 10.7982 1.13113C10.7942 1.15061 10.7916 1.1705 10.789 1.1905C10.7883 1.19686 10.7869 1.2029 10.7863 1.20925C10.7862 1.2105 10.7859 1.21165 10.7858 1.2129L10.252 6.72178H0.781253C0.349689 6.72178 0 7.07157 0 7.50303C0 7.93449 0.349689 8.28428 0.781253 8.28428H10.1006L9.14181 18.1796H6.3544C5.92284 18.1796 5.57315 18.5294 5.57315 18.9609C5.57315 19.3923 5.92284 19.7421 6.3544 19.7421H8.99045L8.46837 25.1298C8.46826 25.1306 8.46826 25.1314 8.46816 25.1322L7.66097 33.4633C7.66086 33.4643 7.66076 33.4653 7.66066 33.4661L7.66034 33.4692C7.6593 33.48 7.65941 33.4906 7.65878 33.5015C7.65805 33.5158 7.65659 33.5299 7.65659 33.5445C7.65659 33.5451 7.6567 33.5457 7.6567 33.5465C7.6567 33.5666 7.65815 33.5864 7.65961 33.6062C7.66024 33.6125 7.66003 33.619 7.66076 33.6252C7.66284 33.6454 7.66628 33.6653 7.66993 33.6851C7.67097 33.6909 7.67149 33.6969 7.67263 33.7026C7.67565 33.7176 7.67993 33.7321 7.68388 33.7468C7.68659 33.7571 7.68878 33.7676 7.69191 33.7777C7.69284 33.7805 7.69409 33.7832 7.69493 33.7862C7.73274 33.9024 7.79691 34.0068 7.88066 34.092C7.88222 34.0935 7.88347 34.0953 7.88503 34.0968C7.89336 34.1051 7.90243 34.1126 7.91118 34.1205C7.96503 34.1699 8.02586 34.2118 8.09243 34.2446C8.10628 34.2515 8.11993 34.2587 8.13409 34.2646C8.13836 34.2665 8.14295 34.2677 8.14732 34.2694C8.16691 34.2772 8.18659 34.2847 8.20691 34.291C8.20878 34.2916 8.21055 34.2919 8.21243 34.2925C8.23555 34.2994 8.25889 34.3054 8.28274 34.3103C8.28587 34.3109 8.28909 34.3112 8.29212 34.3118C8.31482 34.316 8.33764 34.3197 8.36087 34.322C8.36139 34.322 8.3618 34.3221 8.36232 34.3222C8.38795 34.3247 8.41337 34.3259 8.43857 34.3259C8.43889 34.3259 8.4393 34.3258 8.43972 34.3258H11.9177C12.3017 37.2376 14.7981 39.4928 17.8132 39.4928C20.8281 39.4928 23.3245 37.2376 23.7085 34.3258H36.2397C36.6239 37.2376 39.1202 39.4928 42.1352 39.4928C45.1501 39.4928 47.6466 37.2376 48.0308 34.3258H51.5096C51.5101 34.3258 51.5107 34.3259 51.5112 34.3259C51.5373 34.3259 51.5629 34.3244 51.5883 34.3219C51.5929 34.3215 51.5973 34.3205 51.6019 34.32C51.6222 34.3176 51.6424 34.3148 51.6622 34.3108C51.6707 34.3092 51.679 34.3069 51.6874 34.3049C51.7027 34.3014 51.7181 34.2976 51.7331 34.2931C51.7433 34.2901 51.7532 34.2866 51.7632 34.2831C51.776 34.2788 51.7888 34.2742 51.8015 34.2691C51.8123 34.2648 51.8226 34.2601 51.8331 34.2554C51.8446 34.2501 51.856 34.2447 51.8672 34.239C51.8778 34.2335 51.888 34.2279 51.8982 34.2221C51.909 34.2158 51.9196 34.2094 51.9301 34.2027C51.9399 34.1965 51.9497 34.1901 51.9591 34.1834C51.9697 34.176 51.9798 34.1682 51.9901 34.1603C51.9986 34.1535 52.0073 34.1469 52.0156 34.1398C52.0263 34.1307 52.0365 34.1213 52.0467 34.1116C52.0537 34.1048 52.0611 34.0981 52.068 34.091C52.0788 34.08 52.0892 34.0683 52.0995 34.0566C52.105 34.0502 52.1107 34.0441 52.116 34.0376C52.1275 34.0234 52.1379 34.0089 52.1483 33.9942C52.1519 33.9891 52.1558 33.9843 52.1593 33.9791C52.172 33.96 52.184 33.9404 52.195 33.9202C52.1958 33.919 52.1967 33.9178 52.1972 33.9165C52.209 33.8948 52.2198 33.8726 52.2295 33.8497C52.2322 33.8431 52.2343 33.8364 52.2369 33.8298C52.2432 33.8137 52.2495 33.7975 52.2548 33.7807C52.2582 33.7699 52.2607 33.7588 52.2637 33.7478C52.2672 33.7348 52.2708 33.7219 52.2737 33.7086C52.2763 33.6969 52.278 33.6848 52.28 33.6728C52.2818 33.6623 52.2841 33.652 52.2854 33.6413C52.3185 33.3758 52.9303 28.4676 53.2035 25.2938C53.2039 25.2908 53.204 25.2877 53.2043 25.2847C53.2829 24.3698 53.3333 23.5993 53.3333 23.1277C53.3333 17.5275 48.7773 12.9714 43.177 12.9714ZM39.6832 14.5341H42.8793L42.4711 19.2212H39.2749L39.6832 14.5341ZM17.8134 37.9302C15.395 37.9302 13.4274 35.9627 13.4274 33.5444C13.4274 31.126 15.3951 29.1585 17.8134 29.1585C20.2317 29.1585 22.1993 31.126 22.1993 33.5444C22.1993 35.9627 20.2317 37.9302 17.8134 37.9302ZM42.1352 37.9302C39.7168 37.9302 37.7494 35.9627 37.7494 33.5444C37.7494 31.126 39.7169 29.1585 42.1352 29.1585C44.5536 29.1585 46.5211 31.126 46.5211 33.5444C46.5211 35.9627 44.5536 37.9302 42.1352 37.9302ZM50.8193 32.7628H48.031C47.6471 29.8508 45.1506 27.5955 42.1354 27.5955C39.1204 27.5955 36.6239 29.8509 36.2399 32.7628H23.7088C23.3249 29.8508 20.8285 27.5955 17.8134 27.5955C14.7983 27.5955 12.3017 29.8509 11.9178 32.7628H9.29858L9.95473 25.9915H37.9689V25.992C37.9693 25.992 37.9696 25.992 37.97 25.992C37.9962 25.992 38.0221 25.9905 38.0478 25.9879C38.0525 25.9875 38.0572 25.9864 38.062 25.9858C38.0824 25.9834 38.1028 25.9805 38.1228 25.9765C38.1314 25.9748 38.1398 25.9724 38.1484 25.9703C38.164 25.9665 38.1796 25.9629 38.1948 25.9583C38.2053 25.9552 38.2151 25.9514 38.2253 25.9479C38.2384 25.9433 38.2515 25.9388 38.2642 25.9336C38.2752 25.9291 38.2857 25.9241 38.2963 25.9191C38.3079 25.9138 38.3194 25.9085 38.3306 25.9027C38.3412 25.8971 38.3516 25.891 38.3621 25.885C38.3729 25.8787 38.3835 25.8724 38.3939 25.8657C38.404 25.8591 38.4136 25.8523 38.4233 25.8454C38.4336 25.8381 38.4436 25.8306 38.4536 25.8228C38.4625 25.8156 38.4714 25.8082 38.4801 25.8006C38.49 25.7921 38.4997 25.7833 38.5091 25.7742C38.517 25.7666 38.5249 25.7588 38.5326 25.7508C38.542 25.741 38.5511 25.7309 38.56 25.7206C38.567 25.7125 38.5739 25.7043 38.5806 25.696C38.5892 25.6851 38.5974 25.6738 38.6056 25.6625C38.6117 25.6539 38.6176 25.6454 38.6235 25.6366C38.6311 25.6249 38.6384 25.6128 38.6454 25.6005C38.6507 25.5913 38.6561 25.5822 38.6609 25.5728C38.6674 25.5605 38.6731 25.548 38.679 25.5354C38.6836 25.5253 38.6883 25.5154 38.6924 25.505C38.6975 25.4927 38.7018 25.4801 38.7063 25.4675C38.7102 25.4563 38.7142 25.4452 38.7177 25.4337C38.7211 25.4216 38.7239 25.4092 38.727 25.3969C38.73 25.3846 38.7334 25.3723 38.7358 25.3597C38.7382 25.3474 38.7396 25.3349 38.7415 25.3224C38.7434 25.3095 38.7456 25.2967 38.7468 25.2836C38.747 25.2817 38.7474 25.28 38.7475 25.2781L39.1391 20.7833H43.1768C45.5705 20.7833 46.6501 22.0235 47.7929 23.3366C48.7359 24.4201 49.7887 25.6289 51.5783 25.9238C51.351 28.327 50.9836 31.412 50.8193 32.7628ZM51.7119 24.3582C50.5509 24.1215 49.8367 23.3054 48.9713 22.3112C47.8891 21.068 46.568 19.5508 44.0354 19.2681L44.4395 14.6276C48.5816 15.2402 51.7708 18.8182 51.7708 23.1279C51.7708 23.4207 51.749 23.8461 51.7119 24.3582Z"/>
        <path d="M17.8134 30.6798C16.234 30.6798 14.9489 31.9648 14.9489 33.5444C14.9489 35.124 16.234 36.409 17.8134 36.409C19.3929 36.409 20.678 35.124 20.678 33.5444C20.678 31.9649 19.3929 30.6798 17.8134 30.6798ZM17.8134 34.8465C17.0954 34.8465 16.5114 34.2624 16.5114 33.5444C16.5114 32.8264 17.0954 32.2423 17.8134 32.2423C18.5315 32.2423 19.1155 32.8264 19.1155 33.5444C19.1155 34.2624 18.5314 34.8465 17.8134 34.8465Z"/>
        <path d="M42.1352 30.6798C40.5557 30.6798 39.2706 31.9648 39.2706 33.5444C39.2706 35.124 40.5557 36.409 42.1352 36.409C43.7147 36.409 44.9998 35.124 44.9998 33.5444C44.9998 31.9649 43.7147 30.6798 42.1352 30.6798ZM42.1352 34.8465C41.4172 34.8465 40.8331 34.2624 40.8331 33.5444C40.8331 32.8264 41.4172 32.2423 42.1352 32.2423C42.8532 32.2423 43.4373 32.8264 43.4373 33.5444C43.4373 34.2624 42.8532 34.8465 42.1352 34.8465Z"/>
        <path d="M7.39593 12.9717H3.57654C3.14498 12.9717 2.79529 13.3215 2.79529 13.7529C2.79529 14.1844 3.14498 14.5342 3.57654 14.5342H7.39593C7.8275 14.5342 8.17718 14.1844 8.17718 13.7529C8.17718 13.3215 7.8275 12.9717 7.39593 12.9717Z"/>
</symbol>

<symbol viewBox="0 0 38 40" xmlns="http://www.w3.org/2000/svg" id="icon-benefit3">
        <path d="M34.8617 13.3186C34.1266 11.9669 33.2337 10.7344 32.2132 9.63845L34.1097 7.28547C34.3927 6.93453 34.3374 6.42057 33.9864 6.13763C33.6354 5.85477 33.1213 5.9098 32.8385 6.2609L31.0416 8.4902C28.7861 6.47167 26.0483 5.04416 23.0774 4.35559V0.816326C23.0774 0.365469 22.712 0 22.2611 0H16.1291C15.6783 0 15.3128 0.365469 15.3128 0.816326V4.27282C13.596 4.63298 11.9287 5.24122 10.3773 6.08506C9.13432 6.76106 7.9913 7.56816 6.96085 8.48669L5.16697 6.2609C4.88411 5.90996 4.37007 5.85477 4.01905 6.13763C3.66803 6.42057 3.61277 6.93453 3.89571 7.28547L5.78738 9.63249C3.90093 11.6536 2.49579 14.1002 1.68966 16.829C0.323379 21.4535 0.839787 26.3332 3.14362 30.5692C6.30754 36.3864 12.3903 40 19.0181 40C22.008 40 24.9854 39.2402 27.6282 37.8029C30.4648 36.2602 32.8361 33.9882 34.4859 31.2326C36.0871 28.5581 36.9747 25.4977 37.0532 22.3821C37.1324 19.2343 36.3746 16.1002 34.8617 13.3186ZM16.9454 1.63265H21.4448V4.05486C20.6373 3.94441 19.8167 3.88784 18.9875 3.88784C18.3048 3.88784 17.623 3.92947 16.9454 4.00776V1.63265ZM35.421 22.3411C35.2737 28.1978 31.9888 33.5728 26.8482 36.3687C24.444 37.6762 21.7364 38.3673 19.0181 38.3673C12.9889 38.3673 7.45571 35.0804 4.57791 29.7893C0.252032 21.8353 3.20371 11.8451 11.1574 7.51918C13.5615 6.21159 16.2692 5.52049 18.9875 5.52049C25.0166 5.52049 30.5497 8.80751 33.4275 14.0986C34.8036 16.6289 35.493 19.4791 35.421 22.3411Z"/>
        <path d="M19.3994 9.51462C19.4083 9.51487 19.4171 9.51495 19.426 9.51495C19.8647 9.51495 20.2273 9.16638 20.2414 8.72467L20.2556 8.28009C20.27 7.8294 19.9163 7.45242 19.4657 7.43814C19.0167 7.42377 18.638 7.7774 18.6238 8.22801L18.6096 8.67267C18.5952 9.1232 18.9488 9.50018 19.3994 9.51462Z"/>
        <path d="M12.0268 10.6471C12.1739 10.9219 12.4557 11.0782 12.7471 11.0782C12.8771 11.0782 13.009 11.047 13.1317 10.9814C13.5291 10.7686 13.6788 10.2739 13.466 9.87641L13.2561 9.48424C13.0433 9.08685 12.5486 8.93714 12.1511 9.14996C11.7537 9.36277 11.604 9.85747 11.8168 10.2549L12.0268 10.6471Z"/>
        <path d="M8.17399 14.2613L7.79603 14.0268C7.41317 13.7891 6.90974 13.9069 6.67195 14.2899C6.43415 14.673 6.55195 15.1762 6.93505 15.414L7.31301 15.6486C7.44705 15.7317 7.59578 15.7714 7.74272 15.7714C8.01578 15.7714 8.28256 15.6344 8.43709 15.3855C8.67488 15.0024 8.55709 14.4991 8.17399 14.2613Z"/>
        <path d="M6.57341 21.547C6.58778 21.0963 6.23407 20.7194 5.78345 20.7051L5.33888 20.691C4.88754 20.6769 4.51137 21.0303 4.497 21.4809C4.48264 21.9316 4.83635 22.3085 5.28696 22.3229L5.73154 22.337C5.74035 22.3373 5.74925 22.3374 5.75799 22.3374C6.19676 22.3373 6.55929 21.9887 6.57341 21.547Z"/>
        <path d="M6.93518 27.4807L6.5431 27.6907C6.14563 27.9036 5.99608 28.3984 6.20898 28.7958C6.35616 29.0705 6.63796 29.2268 6.92922 29.2268C7.05934 29.2268 7.19126 29.1956 7.31396 29.1298L7.70604 28.9199C8.10351 28.707 8.25306 28.2122 8.04016 27.8148C7.82726 27.4173 7.33257 27.2677 6.93518 27.4807Z"/>
        <path d="M12.4444 32.5094C12.0612 32.2717 11.5581 32.3896 11.3202 32.7727L11.0857 33.1506C10.848 33.5336 10.9658 34.0368 11.3489 34.2746C11.483 34.3579 11.6317 34.3975 11.7786 34.3975C12.0517 34.3975 12.3185 34.2605 12.4731 34.0114L12.7076 33.6335C12.9453 33.2505 12.8274 32.7471 12.4444 32.5094Z"/>
        <path d="M18.6061 34.3731C18.1539 34.3598 17.7785 34.7123 17.7641 35.163L17.7499 35.6075C17.7356 36.0581 18.0892 36.4352 18.5398 36.4494C18.5487 36.4498 18.5575 36.4499 18.5663 36.4499C19.0051 36.4499 19.3676 36.1013 19.3818 35.6596L19.396 35.2149C19.4103 34.7644 19.0567 34.3875 18.6061 34.3731Z"/>
        <path d="M25.9788 33.2404C25.7659 32.843 25.2712 32.6931 24.8737 32.9063C24.4763 33.1191 24.3267 33.6139 24.5395 34.0112L24.7495 34.4034C24.8967 34.6782 25.1786 34.8345 25.4698 34.8345C25.5999 34.8345 25.7319 34.8032 25.8546 34.7375C26.252 34.5247 26.4016 34.0299 26.1888 33.6325L25.9788 33.2404Z"/>
        <path d="M31.0704 28.4736L30.6925 28.2391C30.3096 28.0014 29.8061 28.1191 29.5684 28.5022C29.3306 28.8852 29.4484 29.3885 29.8315 29.6263L30.2094 29.8608C30.3435 29.9441 30.4922 29.9837 30.6391 29.9837C30.9122 29.9837 31.179 29.8468 31.3335 29.5977C31.5712 29.2146 31.4534 28.7113 31.0704 28.4736Z"/>
        <path d="M32.7187 21.565L32.274 21.5508C31.8218 21.5375 31.4465 21.8902 31.4321 22.3408C31.4177 22.7915 31.7714 23.1684 32.222 23.1828L32.6667 23.1969C32.6755 23.1971 32.6844 23.1973 32.6931 23.1973C33.1319 23.1973 33.4944 22.8486 33.5086 22.4069C33.523 21.9562 33.1693 21.5793 32.7187 21.565Z"/>
        <path d="M30.6856 16.504C30.8157 16.504 30.9476 16.4728 31.0703 16.407L31.4624 16.197C31.8598 15.9842 32.0094 15.4894 31.7965 15.092C31.5837 14.6946 31.0888 14.545 30.6915 14.7578L30.2994 14.9679C29.902 15.1807 29.7524 15.6755 29.9653 16.0729C30.1124 16.3477 30.3943 16.504 30.6856 16.504Z"/>
        <path d="M26.6565 9.613C26.2735 9.37528 25.7702 9.49316 25.5324 9.87626L25.2978 10.2542C25.0601 10.6372 25.178 11.1406 25.5611 11.3783C25.6952 11.4615 25.8438 11.5012 25.9907 11.5012C26.2638 11.5012 26.5307 11.3641 26.6852 11.1151L26.9197 10.7372C27.1574 10.3539 27.0396 9.85063 26.6565 9.613Z"/>
        <path d="M20.2925 19.8022C19.8885 19.5591 19.4265 19.4306 18.9566 19.4306C18.3372 19.4306 17.7429 19.6561 17.2797 20.0464L10.9942 16.0566C10.6134 15.8151 10.1089 15.9278 9.86747 16.3084C9.62584 16.6891 9.73857 17.1935 10.1191 17.4352L16.4266 21.4388C16.3344 21.8336 16.3359 22.2474 16.4366 22.6523C16.6039 23.325 17.0232 23.8922 17.6171 24.2495C18.0212 24.4927 18.4832 24.6212 18.9531 24.6212C19.8592 24.6212 20.7119 24.1393 21.1785 23.3637C21.9161 22.1375 21.5187 20.5399 20.2925 19.8022ZM19.7794 22.5221C19.6037 22.8142 19.2948 22.9886 18.9531 22.9886C18.7797 22.9886 18.6087 22.9409 18.4587 22.8507C18.2384 22.7182 18.0829 22.5078 18.0209 22.2584C17.9589 22.0089 17.9978 21.7502 18.1303 21.5299C18.306 21.2377 18.615 21.0633 18.9566 21.0633C19.1299 21.0633 19.3009 21.1111 19.4509 21.2013C19.9056 21.4748 20.053 22.0673 19.7794 22.5221Z"/>
</symbol>

<symbol viewBox="0 0 40 40"  xmlns="http://www.w3.org/2000/svg" id="icon-benefit4">
        <path d="M34.375 23.125H33.125V24.375H34.375V23.125Z"/>
        <path d="M34.375 28.125H33.125V29.375H34.375V28.125Z"/>
        <path d="M34.375 33.125H33.125V34.375H34.375V33.125Z"/>
        <path d="M38.125 18.125H35.3231C35.0044 16.6656 34.3187 15.3137 33.3175 14.1887C32.8631 13.6781 32.3325 13.2663 31.7644 12.97C32.9038 12.1794 33.6525 10.8638 33.6525 9.375V8.75H30.5275C28.935 8.75 27.5431 9.60812 26.7775 10.8831V9.375C26.7775 7.99625 27.8988 6.875 29.2775 6.875V5.625C27.2094 5.625 25.5275 7.30688 25.5275 9.375V12.8431C23.6781 12.1731 21.5987 12.6744 20.27 14.1519C20.1094 14.3306 19.9587 14.5163 19.8144 14.7063L19.8688 14.4456C19.9556 14.0269 20 13.5975 20 13.125C20 11.3694 19.27 9.78312 18.1006 8.64688L20.2919 5.42188C20.3387 5.3525 20.3813 5.27937 20.4206 5.20125C20.8975 4.24687 20.5094 3.08188 19.555 2.605L19.3988 2.52688C18.9369 2.29563 18.4125 2.25812 17.9219 2.42188C17.4312 2.58563 17.0338 2.93 16.7975 3.40125C16.7638 3.46812 16.7344 3.5375 16.7094 3.60687L15.435 7.11187C15.3487 7.0875 15.2612 7.065 15.1737 7.04437L15.615 2.62625C15.6219 2.565 15.625 2.5025 15.625 2.44062C15.625 1.43937 14.81 0.625 13.8094 0.625H13.6912C12.69 0.625 11.875 1.43937 11.875 2.44062C11.875 2.50312 11.8781 2.565 11.8844 2.62188L12.3263 7.04562C12.2381 7.06625 12.1513 7.08875 12.065 7.11312L10.7913 3.60875C10.7656 3.53813 10.7362 3.46875 10.6981 3.3925C10.4669 2.93 10.0694 2.58563 9.57875 2.42188C9.08875 2.25812 8.56438 2.29563 8.10188 2.52688L7.94563 2.605C6.99188 3.0825 6.60375 4.24688 7.08125 5.20375C7.12 5.27938 7.16188 5.35187 7.21 5.42313L9.4025 8.65C8.23125 9.7925 7.5 11.3906 7.5 13.17C7.5 13.5975 7.54438 14.0269 7.63188 14.445L8.39875 18.125H7.5C6.81063 18.125 6.25 18.6856 6.25 19.375V19.425C6.045 19.3956 5.8375 19.375 5.625 19.375H2.5V20C2.5 21.4888 3.24875 22.8044 4.38812 23.595C3.81938 23.8912 3.28875 24.3031 2.835 24.8144C1.41 26.4156 0.625 28.4794 0.625 30.625C0.625 33.0262 1.57813 35.2656 3.30875 36.9313C4.955 38.515 7.09625 39.3756 9.37125 39.3756C9.48812 39.3756 9.60437 39.3731 9.72188 39.3688C11.9462 39.2831 13.9694 38.3438 15.4737 36.8756H33.75C35.4731 36.8756 36.875 35.4738 36.875 33.7506V21.875H38.125C38.8144 21.875 39.375 21.3144 39.375 20.625V19.375C39.375 18.6856 38.8144 18.125 38.125 18.125ZM30.5275 10H32.3394C32.0487 11.4244 30.7869 12.5 29.2775 12.5H27.4656C27.7556 11.0756 29.0181 10 30.5275 10ZM21.1987 14.9875C22.2169 13.8562 23.9013 13.4831 25.295 14.0794C25.37 14.1112 25.4494 14.1362 25.5275 14.1631V15.4975C24.9069 15.2662 24.3175 14.7794 24.0938 14.5569L23.2106 15.4419C23.3569 15.5888 24.6856 16.875 26.1525 16.875C27.6194 16.875 28.9481 15.5888 29.0944 15.4419L28.2113 14.5569C27.9875 14.7788 27.3981 15.2656 26.7775 15.4975V13.75H29.2775C29.4894 13.75 29.6956 13.73 29.8994 13.7006C30.775 13.7631 31.7013 14.2531 32.3837 15.0194C33.1806 15.9144 33.7412 16.9775 34.0369 18.125H19.5181C19.8169 16.9638 20.3875 15.8894 21.1987 14.9875ZM17.8844 4.03312C17.8931 4.00938 17.9025 3.98625 17.9206 3.95125C18.0025 3.7875 18.1425 3.66562 18.3169 3.6075C18.4919 3.54937 18.6762 3.56312 18.84 3.645L18.9963 3.72312C19.3344 3.89187 19.4719 4.30437 19.3037 4.64C19.29 4.66812 19.2731 4.69625 19.2569 4.72062L17.1181 7.86812C16.95 7.76 16.7769 7.66 16.5988 7.56813L17.8844 4.03312ZM13.125 2.44062C13.125 2.12875 13.3788 1.875 13.6906 1.875H13.8088C14.1206 1.875 14.3744 2.12875 14.3713 2.49687L13.9325 6.88438C13.8719 6.8825 13.8119 6.875 13.75 6.875C13.6881 6.875 13.6281 6.8825 13.5669 6.88438L13.125 2.44062ZM8.24438 4.7225C8.22687 4.69625 8.21 4.66875 8.1975 4.6425C8.02813 4.30437 8.16563 3.89187 8.50375 3.72312L8.66 3.645C8.82312 3.56375 9.00875 3.54937 9.18312 3.6075C9.35687 3.66562 9.4975 3.7875 9.58562 3.96312C9.5975 3.98563 9.60687 4.00875 9.61625 4.03375L10.9019 7.56938C10.7238 7.66125 10.5506 7.76125 10.3831 7.86937L8.24438 4.7225ZM13.75 8.125C16.5069 8.125 18.75 10.3681 18.75 13.17C18.75 13.5119 18.7144 13.855 18.645 14.19L17.825 18.125H10.8638C11.3031 17.7406 11.8713 17.5 12.5 17.5V16.25C11.3188 16.25 10.265 16.8 9.57687 17.6562L8.85437 14.19C8.78562 13.855 8.75 13.5119 8.75 13.125C8.75 10.3681 10.9931 8.125 13.75 8.125ZM7.5 19.375H8.80625C8.77188 19.5788 8.75 19.7869 8.75 20V20.6944C8.39125 20.3275 7.96812 20.0269 7.5 19.8038V19.375ZM5.625 20.625C7.13438 20.625 8.39687 21.7006 8.68688 23.125H6.875C5.36562 23.125 4.10312 22.0494 3.81312 20.625H5.625ZM9.67375 38.1194C7.6 38.1938 5.65875 37.4569 4.17563 36.03C2.6925 34.6025 1.875 32.6831 1.875 30.625C1.875 28.7856 2.5475 27.0175 3.76812 25.6444C4.45062 24.8775 5.37687 24.3875 6.25313 24.3256C6.45687 24.355 6.66313 24.375 6.875 24.375H8.75V26.1225C8.12937 25.8913 7.54 25.4044 7.31625 25.1819L6.43313 26.0669C6.57938 26.2138 7.90812 27.5 9.375 27.5C10.8419 27.5 12.1706 26.2138 12.3169 26.0669L11.4338 25.1819C11.21 25.4037 10.6206 25.8906 10 26.1225V24.9456C10.2994 24.8975 10.5894 24.8194 10.8575 24.7044C12.2506 24.1069 13.9356 24.4819 14.9531 25.6125C16.275 27.0819 16.955 28.9831 16.8675 30.9656C16.6969 34.8281 13.5363 37.97 9.67375 38.1194ZM18.115 30.625C18.115 29.3113 17.8344 28.0356 17.2825 26.875H35.625V30.625H18.115ZM33.75 35.625H16.5394C17.3094 34.5288 17.8356 33.2519 18.035 31.875H35.625V33.75C35.625 34.7837 34.7837 35.625 33.75 35.625ZM38.125 20.625H35.625V25.625H16.5469C16.3419 25.3319 16.125 25.0463 15.8825 24.7769C14.4906 23.23 12.2725 22.74 10.3663 23.5556C10.2519 23.6044 10.1262 23.6362 10.0006 23.6675V21.875H34.3756V20.625H10V20C10 19.7831 10.0363 19.5763 10.0887 19.375H38.125V20.625Z"/>
        <path d="M4.375 30.625H3.125C3.125 34.0712 5.92875 36.875 9.375 36.875V35.625C6.61813 35.625 4.375 33.3819 4.375 30.625Z"/>
        <path d="M16.875 10.625H15.625V11.875H16.875V10.625Z"/>
        <path d="M16.875 13.125H15.625V14.375H16.875V13.125Z"/>
        <path d="M16.875 15.625H15.625V16.875H16.875V15.625Z"/>
</symbol>

<symbol viewBox="0 0 36 40" xmlns="http://www.w3.org/2000/svg" id="icon-benefit5">
        <path d="M18.345 16.1111C18.3366 16.1111 18.3282 16.1111 18.3282 16.1111H15.5841C15.239 16.1111 14.9528 16.3973 14.9528 16.7424V23.7458H14.0774C13.7322 23.7458 13.446 24.032 13.446 24.3771C13.446 24.7222 13.7322 25.0084 14.0774 25.0084H14.9528V26.0943H14.0774C13.7322 26.0943 13.446 26.3805 13.446 26.7256C13.446 27.0707 13.7322 27.3569 14.0774 27.3569H14.9528V30.6397C14.9528 30.9848 15.239 31.271 15.5841 31.271C15.9292 31.271 16.2154 30.9848 16.2154 30.6397V27.3569H20.2221C20.5673 27.3569 20.8535 27.0707 20.8535 26.7256C20.8535 26.3805 20.5673 26.0943 20.2221 26.0943H16.2154V25.0084H18.3282C20.6599 25.0084 22.5538 23.0303 22.5538 20.5892C22.5538 18.1566 20.7104 16.1869 18.345 16.1111ZM18.3282 23.7458H16.2154V17.3737H18.3198C19.9864 17.4327 21.2912 18.8468 21.2912 20.5892C21.2912 22.3317 19.9612 23.7458 18.3282 23.7458Z"/>
        <path d="M35.2812 22.1886L23.0084 9.93266C23.9007 8.74579 24.3384 7.29798 24.2374 5.80808C24.128 4.22559 23.4377 2.75253 22.2761 1.67509C21.1145 0.589228 19.5825 0 17.9663 0C16.3754 0 14.8603 0.597646 13.7071 1.69192C12.5539 2.7862 11.8637 4.26768 11.7542 5.88384C11.729 6.22896 11.9983 6.53199 12.3435 6.55724C12.6886 6.58249 12.9916 6.31313 13.0169 5.96802C13.1936 3.29125 15.3233 1.27105 17.9663 1.27105C20.6515 1.27105 22.8064 3.26599 22.9832 5.90909C23.0589 7.07071 22.7307 8.16498 22.1162 9.04882L18.4798 5.42088C18.2357 5.17677 17.8317 5.17677 17.5876 5.42088L0.718876 22.2054C0.601031 22.3232 0.533691 22.4832 0.533691 22.6515C0.533691 22.8199 0.601031 22.9798 0.718876 23.0976L17.5876 39.8148C17.7138 39.9327 17.8738 40 18.0337 40C18.1936 40 18.3536 39.9411 18.4798 39.8148L35.2812 23.0976C35.399 22.9798 35.4663 22.8199 35.4663 22.6515C35.4663 22.4663 35.399 22.3064 35.2812 22.1886ZM18.0337 38.4596L2.06568 22.6347L18.0337 6.74243L21.2576 9.96633C21.0051 10.1852 20.7189 10.3788 20.4243 10.5387C19.995 9.62963 19.0859 9.00673 18.0337 9.00673C16.5017 9.00673 15.3064 10.202 15.3064 11.734C15.3064 13.1987 16.527 14.3939 18.0337 14.3939C19.4731 14.3939 20.6431 13.2492 20.6936 11.8182C21.2239 11.5741 21.7121 11.2542 22.1498 10.8586L33.9428 22.6347L18.0337 38.4596ZM18.0589 11.8013C18.0926 12.1212 18.3704 12.3653 18.6818 12.3653C18.7071 12.3653 18.7323 12.3653 18.7492 12.3653C18.9344 12.3485 19.128 12.3148 19.3131 12.2727C19.0943 12.7694 18.5977 13.1313 18.0253 13.1313C17.2004 13.1313 16.5606 12.5168 16.5606 11.734C16.5606 10.9007 17.1919 10.2694 18.0253 10.2694C18.5472 10.2694 19.0017 10.5556 19.2374 10.9933C19.0354 11.0438 18.8249 11.0774 18.6145 11.1027C18.2694 11.1448 18.0253 11.4562 18.0589 11.8013Z"/>
</symbol>

<symbol viewBox="0 0 40 40" xmlns="http://www.w3.org/2000/svg" id="icon-benefit6">
        <path d="M20 0C14.9606 0 10.1464 1.88031 6.44433 5.29458C6.20643 5.51398 6.19154 5.88466 6.41078 6.12256C6.63026 6.36054 7.00085 6.37542 7.23884 6.15611C10.7238 2.94193 15.2558 1.17188 19.9999 1.17188C30.3818 1.17188 38.828 9.6181 38.828 20C38.828 30.3819 30.3818 38.8281 20 38.8281C9.61818 38.8281 1.17188 30.3818 1.17188 20C1.17188 15.6811 2.67088 11.4618 5.39255 8.11957C5.5969 7.8686 5.55918 7.49958 5.30829 7.2953C5.05723 7.09094 4.68821 7.12882 4.48393 7.37964C1.5924 10.9302 0 15.4123 0 20C0 25.3421 2.08041 30.3646 5.8578 34.1422C9.63527 37.9196 14.6578 40 20 40C25.3422 40 30.3647 37.9196 34.1422 34.1422C37.9196 30.3647 40 25.3422 40 20C40 14.6578 37.9196 9.63535 34.1421 5.8578C30.3647 2.08041 25.3421 0 20 0V0Z"/>
        <path d="M35.9873 25.8686C36.295 25.9695 36.6258 25.8022 36.7268 25.4947C37.3073 23.7267 37.6015 21.878 37.6015 20C37.6015 15.2985 35.7705 10.8782 32.4462 7.55381C29.1216 4.22923 24.7015 2.39838 20 2.39838C15.2984 2.39838 10.8782 4.22923 7.55371 7.55381C4.22937 10.8782 2.39844 15.2984 2.39844 20C2.39844 24.7016 4.22929 29.1216 7.55371 32.4461C10.8782 35.7706 15.2984 37.6015 20 37.6015C23.2873 37.6015 26.4938 36.6893 29.2731 34.9635C31.9753 33.2854 34.176 30.9077 35.6375 28.0873C35.7864 27.7999 35.6742 27.4463 35.3868 27.2974C35.0996 27.1486 34.7459 27.2608 34.597 27.5481C31.7583 33.0264 26.165 36.4296 20 36.4296C10.9406 36.4296 3.57031 29.0593 3.57031 20C3.57031 10.9406 10.9406 3.57025 20 3.57025C29.0593 3.57025 36.4296 10.9406 36.4296 20C36.4296 21.7537 36.1549 23.4794 35.6134 25.1291C35.5124 25.4366 35.6798 25.7677 35.9873 25.8686Z"/>
        <path d="M26.7639 21.3922L32.6287 17.1311C33.0622 16.8162 33.2353 16.2835 33.0697 15.774C32.9042 15.2645 32.4511 14.9352 31.9153 14.9352H24.6659C24.085 14.9352 23.5741 14.5641 23.3947 14.0116L21.1545 7.11704C20.989 6.6076 20.5358 6.27835 20.0001 6.27835C19.4644 6.27835 19.0112 6.6076 18.8457 7.11704L16.6055 14.0117C16.426 14.5641 15.9151 14.9352 15.3343 14.9352H13.8632C13.5395 14.9352 13.2773 15.1975 13.2773 15.5211C13.2773 15.8447 13.5395 16.107 13.8632 16.107H15.3343C16.4245 16.107 17.3833 15.4104 17.7201 14.3737L19.9603 7.47913C19.9657 7.46235 19.9697 7.45015 20.0002 7.45015C20.0307 7.45015 20.0346 7.46235 20.0401 7.47913L22.2803 14.3737C22.6171 15.4105 23.5758 16.1071 24.6661 16.1071H31.9155C31.9332 16.1071 31.946 16.1071 31.9554 16.1361C31.9648 16.1651 31.9545 16.1726 31.9402 16.1829L26.0754 20.444C25.1935 21.0848 24.8272 22.2118 25.1641 23.2487L27.4043 30.1432C27.4097 30.16 27.4137 30.1722 27.3891 30.1901C27.3644 30.2082 27.3541 30.2004 27.3397 30.1901L21.475 25.929C20.5931 25.2883 19.4079 25.2882 18.5259 25.929L12.6612 30.1901C12.6468 30.2005 12.6366 30.2082 12.6118 30.1901C12.5871 30.1722 12.591 30.16 12.5966 30.1432L14.8368 23.2486C15.1737 22.2118 14.8074 21.0847 13.9255 20.444L8.06069 16.1829C8.04628 16.1726 8.03604 16.1651 8.04549 16.1361C8.05494 16.1071 8.0677 16.1071 8.08542 16.1071H11.1294C11.4531 16.1071 11.7153 15.8448 11.7153 15.5212C11.7153 15.1976 11.4531 14.9353 11.1294 14.9353H8.08542C7.54968 14.9353 7.09656 15.2646 6.93102 15.7741C6.76549 16.2836 6.93858 16.8163 7.37202 17.1312L13.2368 21.3922C13.7067 21.7337 13.9019 22.3342 13.7225 22.8867L11.4823 29.7812C11.3168 30.2906 11.4898 30.8234 11.9232 31.1383C12.3567 31.4532 12.9169 31.4532 13.3502 31.1383L19.215 26.8772C19.6849 26.5358 20.3164 26.5359 20.7864 26.8772L26.6511 31.1383C27.0847 31.4532 27.6447 31.4532 28.0782 31.1383C28.5116 30.8234 28.6846 30.2906 28.5191 29.7812L26.2789 22.8867C26.0988 22.3342 26.294 21.7337 26.7639 21.3922Z"/>
</symbol>

<symbol viewBox="0 0 16 27"  xmlns="http://www.w3.org/2000/svg" id="icon-delivery-n1">
    <circle cx="8" cy="8" r="6.5" stroke="#F7074C" stroke-width="3"/>
    <line x1="8" y1="18" x2="8" y2="27" stroke="black" stroke-width="2"/>
</symbol>

<symbol viewBox="0 0 35 35" xmlns="http://www.w3.org/2000/svg" id="icon-social1">
    <circle cx="17.5" cy="17.5" r="17.5" fill="#8E24AA"/>
    <path d="M26.7096 19.3098C27.2919 14.4081 26.4298 11.3135 24.8748 9.91385L24.8756 9.91303C22.3658 7.52277 13.8897 7.16898 10.887 10.0204C9.53856 11.4152 9.0636 13.4622 9.01155 15.9965C8.9595 18.5315 8.89769 23.2803 13.3228 24.5686H13.3269L13.3228 26.5359C13.3228 26.5359 13.2927 27.3329 13.8018 27.4932C14.3842 27.6818 14.6477 27.3118 16.4589 25.1484C19.4876 25.4111 21.8136 24.8093 22.0779 24.7215C22.6895 24.5165 26.15 24.0586 26.7096 19.3098ZM16.7573 23.7642C16.7573 23.7642 14.8404 26.1545 14.2443 26.775C14.0491 26.9767 13.8352 26.958 13.8384 26.5579C13.8384 26.2952 13.8531 23.2917 13.8531 23.2917C10.1014 22.2165 10.3226 18.1728 10.3632 16.0575C10.4039 13.9413 10.791 12.2081 11.9329 11.0411C14.5671 8.5711 21.9982 9.12333 23.8915 10.9028C26.2062 12.9547 25.3823 18.7519 25.3872 18.9495C24.9114 22.9135 22.1072 23.1648 21.5915 23.3364C21.3711 23.4096 19.3257 23.9358 16.7573 23.7642Z" fill="white"/>
    <path d="M17.818 11.5054C17.5049 11.5054 17.5049 11.9933 17.818 11.9974C20.2473 12.0161 22.248 13.7094 22.2699 16.8154C22.2699 17.1431 22.7498 17.139 22.7457 16.8113H22.7449C22.7189 13.4646 20.5344 11.5241 17.818 11.5054Z" fill="white"/>
    <path d="M21.0133 16.3006C21.006 16.6243 21.485 16.6398 21.4891 16.312C21.5289 14.4667 20.3911 12.9466 18.253 12.7864C17.9398 12.7636 17.9073 13.2557 18.2196 13.2785C20.0739 13.4192 21.0507 14.6846 21.0133 16.3006Z" fill="white"/>
    <path d="M20.501 18.3999C20.0992 18.1673 19.6901 18.3121 19.5209 18.5406L19.1672 18.9985C18.9874 19.2311 18.6515 19.2002 18.6515 19.2002C16.2003 18.552 15.5448 15.9869 15.5448 15.9869C15.5448 15.9869 15.5147 15.6396 15.7391 15.4533L16.1816 15.0874C16.4028 14.9117 16.5427 14.4888 16.3174 14.0732C15.7156 12.9858 15.3114 12.6109 15.1056 12.323C14.8893 12.0522 14.5639 11.9912 14.2256 12.1741H14.2183C13.5148 12.5857 12.7446 13.3559 12.991 14.1488C13.4115 14.9849 14.1841 17.65 16.6468 19.6638C17.8041 20.6161 19.6356 21.5921 20.4131 21.8173L20.4204 21.8287C21.1866 22.0841 21.9315 21.2838 22.3292 20.5592V20.5535C22.5057 20.203 22.4472 19.8711 22.1894 19.654C21.7323 19.2083 21.0426 18.7163 20.501 18.3999Z" fill="white"/>
    <path d="M18.5881 14.6017C19.3696 14.6472 19.7486 15.0555 19.7893 15.894C19.8039 16.2218 20.2797 16.199 20.2651 15.8712C20.213 14.7766 19.6421 14.1666 18.6141 14.1097C18.301 14.0909 18.2717 14.583 18.5881 14.6017Z" fill="white"/>
</symbol>

<symbol viewBox="0 0 35 35" xmlns="http://www.w3.org/2000/svg" id="icon-social2">
    <path d="M17.5 35C27.165 35 35 27.165 35 17.5C35 7.83502 27.165 0 17.5 0C7.83502 0 0 7.83502 0 17.5C0 27.165 7.83502 35 17.5 35Z" fill="#039BE5"/>
    <path d="M8.00772 17.1209L24.8806 10.6153C25.6638 10.3323 26.3477 10.8063 26.094 11.9905L26.0954 11.989L23.2225 25.5238C23.0096 26.4834 22.4394 26.7167 21.6417 26.2646L17.2667 23.0403L15.1565 25.0732C14.9231 25.3065 14.7263 25.5034 14.2742 25.5034L14.5848 21.0511L22.6931 13.7259C23.0461 13.4153 22.6144 13.2403 22.1492 13.5494L12.129 19.8582L7.80939 18.5107C6.87168 18.2132 6.85127 17.573 8.00772 17.1209Z" fill="white"/>
</symbol>

<symbol viewBox="0 0 35 35" xmlns="http://www.w3.org/2000/svg" id="icon-social3">
    <circle cx="17.5" cy="17.5" r="17.5" fill="#4CAF50"/>
    <path d="M23.2898 19.0987L23.2818 19.1656C21.3194 18.1876 21.1141 18.0573 20.8607 18.4374C20.6849 18.7007 20.1726 19.2977 20.0183 19.4744C19.8621 19.6484 19.7068 19.6618 19.4418 19.5413C19.1741 19.4075 18.3147 19.1264 17.2973 18.2161C16.5049 17.5067 15.973 16.6366 15.816 16.3688C15.5545 15.9173 16.1015 15.853 16.5995 14.9107C16.6887 14.7233 16.6432 14.576 16.5772 14.4431C16.5103 14.3092 15.9775 12.9974 15.7544 12.4744C15.5402 11.9533 15.3198 12.0193 15.1547 12.0193C14.6407 11.9747 14.265 11.9818 13.9339 12.3263C12.4936 13.9094 12.8568 15.5425 14.0892 17.2791C16.5111 20.4489 17.8015 21.0325 20.161 21.8428C20.7982 22.0454 21.3792 22.0168 21.8388 21.9508C22.351 21.8696 23.4156 21.3074 23.6378 20.6782C23.8654 20.0491 23.8654 19.527 23.7985 19.4066C23.7324 19.2861 23.5575 19.2192 23.2898 19.0987Z" fill="white"/>
    <path d="M25.0997 9.87448C18.6923 3.68042 8.08833 8.17284 8.08417 16.911C8.08417 18.6576 8.54166 20.361 9.41331 21.8651L8 27L13.2791 25.6234C19.8665 29.1816 27.9963 24.4567 27.9996 16.916C27.9996 14.2694 26.9663 11.7786 25.0872 9.90697L25.0997 9.87448ZM26.3347 16.8885C26.3297 23.2492 19.3473 27.2217 13.8249 23.9751L13.5249 23.7967L10.4 24.6092L11.2374 21.5718L11.0383 21.2593C7.60167 15.7885 11.5499 8.63866 18.0598 8.63866C20.2714 8.63866 22.3472 9.50115 23.9105 11.0636C25.473 12.6128 26.3347 14.6886 26.3347 16.8885Z" fill="white"/>
</symbol>

<symbol viewBox="0 0 35 35" xmlns="http://www.w3.org/2000/svg" id="icon-social4">
    <path d="M17.5 35C27.165 35 35 27.165 35 17.5C35 7.83502 27.165 0 17.5 0C7.83502 0 0 7.83502 0 17.5C0 27.165 7.83502 35 17.5 35Z" fill="#4D76A1"/>
    <path fill-rule="evenodd" clip-rule="evenodd" d="M16.8391 25.1753H18.2126C18.2126 25.1753 18.6275 25.1298 18.8393 24.9014C19.0343 24.6918 19.0281 24.2981 19.0281 24.2981C19.0281 24.2981 19.0012 22.4551 19.8566 22.1837C20.6998 21.9163 21.7826 23.9649 22.9303 24.7526C23.7982 25.3487 24.4576 25.218 24.4576 25.218L27.5263 25.1753C27.5263 25.1753 29.1316 25.0764 28.3705 23.8142C28.3081 23.711 27.9272 22.8806 26.0888 21.1742C24.1647 19.3882 24.4224 19.6771 26.7402 16.5878C28.1518 14.7064 28.7161 13.5578 28.5399 13.0659C28.3717 12.5973 27.3335 12.7212 27.3335 12.7212L23.8783 12.7427C23.8783 12.7427 23.6222 12.7077 23.4322 12.8213C23.2466 12.9327 23.1272 13.1922 23.1272 13.1922C23.1272 13.1922 22.5803 14.6481 21.8509 15.8862C20.3124 18.4989 19.6972 18.6367 19.4458 18.4745C18.8609 18.0964 19.0069 16.9556 19.0069 16.1452C19.0069 13.6133 19.3909 12.5577 18.2591 12.2844C17.8835 12.1936 17.6071 12.1337 16.6466 12.1241C15.4138 12.1113 14.3703 12.1278 13.7794 12.4173C13.3864 12.6098 13.0832 13.0387 13.2678 13.0634C13.4962 13.0939 14.0134 13.2028 14.2876 13.5762C14.6417 14.0579 14.6292 15.1397 14.6292 15.1397C14.6292 15.1397 14.8326 18.1201 14.1541 18.4904C13.6884 18.7444 13.0495 18.2259 11.6778 15.8557C10.975 14.6415 10.4443 13.2995 10.4443 13.2995C10.4443 13.2995 10.342 13.0487 10.1595 12.9146C9.93805 12.752 9.62859 12.7003 9.62859 12.7003L6.34527 12.7218C6.34527 12.7218 5.85238 12.7355 5.67145 12.9498C5.51048 13.1404 5.65866 13.5347 5.65866 13.5347C5.65866 13.5347 8.22916 19.5486 11.1397 22.5792C13.8085 25.3578 16.8391 25.1753 16.8391 25.1753Z" fill="white"/>
</symbol>

<symbol viewBox="0 0 35 35" xmlns="http://www.w3.org/2000/svg" id="icon-social5">
    <circle cx="17.5" cy="17.5" r="17.5" fill="#C837AB"/>
    <path d="M17.5002 9.00819C14.0186 9.00819 10.7125 8.69873 9.4497 11.9371C8.92809 13.2746 9.00384 15.0116 9.00384 17.4988C9.00384 19.6813 8.93384 21.7326 9.4497 23.0596C10.7096 26.2998 14.0426 25.9894 17.4983 25.9894C20.8322 25.9894 24.2697 26.3362 25.5478 23.0596C26.0704 21.7087 25.9937 19.9975 25.9937 17.4988C25.9937 14.1819 26.1768 12.0406 24.5669 10.4329C22.9369 8.80412 20.7325 9.00819 17.4964 9.00819H17.5002ZM16.7389 10.5383C24.0012 10.5268 24.9255 9.72006 24.4154 20.9269C24.2342 24.8905 21.2138 24.4555 17.5012 24.4555C10.7317 24.4555 10.537 24.262 10.537 17.495C10.537 10.6494 11.074 10.5421 16.7389 10.5364V10.5383ZM22.0356 11.9476C21.4727 11.9476 21.0163 12.4037 21.0163 12.9661C21.0163 13.5285 21.4727 13.9845 22.0356 13.9845C22.5984 13.9845 23.0548 13.5285 23.0548 12.9661C23.0548 12.4037 22.5984 11.9476 22.0356 11.9476ZM17.5002 13.1385C15.0906 13.1385 13.1374 15.0911 13.1374 17.4988C13.1374 19.9065 15.0906 21.8581 17.5002 21.8581C19.9098 21.8581 21.862 19.9065 21.862 17.4988C21.862 15.0911 19.9098 13.1385 17.5002 13.1385ZM17.5002 14.6686C21.2445 14.6686 21.2493 20.329 17.5002 20.329C13.7569 20.329 13.7511 14.6686 17.5002 14.6686Z" fill="white"/>
    <defs>
    <linearGradient id="paint0_linear" x1="2.34996" y1="32.7198" x2="34.7798" y2="4.64656" gradientUnits="userSpaceOnUse">
    <stop stop-color="#FFDD55"/>
    <stop offset="0.5" stop-color="#FF543E"/>
    <stop offset="1" stop-color="#C837AB"/>
    </linearGradient>
    </defs>
</symbol>

<symbol viewBox="0 0 35 35" xmlns="http://www.w3.org/2000/svg" id="icon-social6">
    <path d="M24.5605 11.25H10.4395L17.5 17.3019L24.5605 11.25Z" fill="#C89447"/>
    <path d="M17.5 18.75C17.3508 18.75 17.2064 18.6966 17.0932 18.5992L9.375 11.9836V23.75H25.625V11.9836L17.9068 18.5992C17.7936 18.6966 17.6492 18.75 17.5 18.75Z" fill="#C89447"/>
    <path d="M17.5 0C7.83508 0 0 7.83508 0 17.5C0 27.1649 7.83508 35 17.5 35C27.1649 35 35 27.1649 35 17.5C34.989 7.83966 27.1603 0.0109863 17.5 0ZM26.875 24.375C26.875 24.7202 26.5952 25 26.25 25H8.75C8.40485 25 8.125 24.7202 8.125 24.375V10.625C8.125 10.2798 8.40485 10 8.75 10H26.25C26.5952 10 26.875 10.2798 26.875 10.625V24.375Z" fill="#C89447"/>
</symbol>

<symbol viewBox="0 0 35 35" xmlns="http://www.w3.org/2000/svg" id="icon-social7">
    <g clip-path="url(#clip0)">
    <path d="M29.8722 5.1234C23.037 -1.70973 11.9565 -1.70809 5.1234 5.12716C-1.70973 11.9624 -1.70809 23.0428 5.12716 29.8759C11.9624 36.709 23.0428 36.7074 29.8759 29.8722C33.1576 26.5895 35.0007 22.1376 34.9997 17.4959C34.9987 12.855 33.1543 8.40451 29.8722 5.1234ZM26.5028 24.377C26.502 24.3777 26.5013 24.3785 26.5005 24.3793V24.3735L25.6138 25.2543C24.4671 26.4155 22.797 26.8933 21.2096 26.5143C19.6103 26.0862 18.09 25.4048 16.7063 24.496C15.4207 23.6744 14.2293 22.7139 13.1538 21.6318C12.1641 20.6494 11.2751 19.5707 10.4996 18.4118C9.65139 17.1648 8.98003 15.8063 8.50459 14.3751C7.95956 12.6937 8.41121 10.8488 9.67128 9.60928L10.7096 8.57097C10.9983 8.28099 11.4674 8.27996 11.7573 8.56864C11.758 8.56939 11.7588 8.57015 11.7596 8.57097L15.0379 11.8493C15.3279 12.138 15.3289 12.607 15.0402 12.897C15.0395 12.8977 15.0387 12.8985 15.0379 12.8993L13.1129 14.8243C12.5606 15.3706 12.4911 16.2388 12.9496 16.866C13.6458 17.8215 14.4163 18.7206 15.2538 19.5552C16.1875 20.4929 17.2026 21.346 18.2871 22.1043C18.9137 22.5414 19.7633 22.4677 20.3054 21.9293L22.1662 20.0393C22.4549 19.7494 22.924 19.7483 23.2139 20.037C23.2146 20.0378 23.2154 20.0385 23.2162 20.0393L26.5004 23.3293C26.7904 23.618 26.7915 24.087 26.5028 24.377Z" fill="#F7074C"/>
    </g>
    <defs>
    <clipPath id="clip0">
    <rect width="35" height="35" fill="white"/>
    </clipPath>
    </defs>
</symbol>

<symbol id="icon-arrow-left" viewBox="0 0 13 12" fill="none" xmlns="http://www.w3.org/2000/svg">
    <path fill-rule="evenodd" clip-rule="evenodd" d="M3.40936 7L6.70499 10.2857C7.09834 10.6779 7.09834 11.3137 6.70499 11.7059C6.31164 12.098 5.6739 12.098 5.28055 11.7059L0.295011 6.73533C0.0918949 6.53282 -0.00633685 6.26535 0.000316543 6C-0.00633685 5.73465 0.0918949 5.46718 0.295011 5.26467L5.28055 0.294124C5.6739 -0.0980413 6.31164 -0.0980413 6.70499 0.294124C7.09834 0.686289 7.09834 1.32212 6.70499 1.71428L3.40936 5H12C12.5523 5 13 5.44771 13 6C13 6.55228 12.5523 7 12 7H3.40936Z" fill="white"/>
</symbol>

</svg>